<?xml version="1.0" encoding="utf-8"?>
<!-- Generator: Adobe Illustrator 28.0.0, SVG Export Plug-In . SVG Version: 6.00 Build 0)  -->
<svg version="1.1" id="Layer_1" xmlns="http://www.w3.org/2000/svg" x="0px" y="0px"
	 viewBox="0 0 326.21 98.81" style="enable-background:new 0 0 326.21 98.81;" xml:space="preserve">
<style type="text/css">
	.st0{fill:#FFFFFF;}
	.st1{opacity:0.8;}
	.st2{fill:#2563EB;}
</style>
<g>
	<rect x="112.05" y="1.63" class="st0" width="2.13" height="94.81"/>
</g>
<g>
	<g>
		<g>
			<g class="st1">
				<path class="st0" d="M66.76,24.63H32.7l-10.53,32.4l27.56,20.03l27.55-20.03L66.76,24.63z M43.84,54.08h-2.31l-2.14-8.05
					l-2.14,8.05H34.9l-2.57-10.76h2.22l1.63,7.4l1.96-7.4h2.59l1.89,7.51l1.65-7.51h2.19L43.84,54.08z M55.25,52.68
					c-0.34,0.54-0.82,0.94-1.45,1.2c-0.63,0.26-1.41,0.39-2.34,0.39c-1.36,0-2.41-0.31-3.13-0.94c-0.73-0.63-1.16-1.54-1.31-2.75
					l2.11-0.21c0.13,0.72,0.39,1.24,0.78,1.57c0.39,0.33,0.91,0.5,1.57,0.5c0.7,0,1.23-0.15,1.58-0.44c0.36-0.3,0.53-0.64,0.53-1.04
					c0-0.25-0.08-0.47-0.23-0.65c-0.14-0.17-0.4-0.34-0.78-0.47c-0.25-0.09-0.83-0.25-1.74-0.47c-1.17-0.29-1.98-0.65-2.45-1.06
					c-0.66-0.6-1-1.32-1-2.17c0-0.55,0.16-1.06,0.47-1.54s0.76-0.85,1.34-1.1c0.59-0.25,1.29-0.37,2.13-0.37
					c1.34,0,2.36,0.29,3.05,0.89c0.68,0.59,1.04,1.38,1.07,2.36l-2.17,0.1c-0.1-0.55-0.29-0.94-0.6-1.19
					c-0.31-0.24-0.77-0.36-1.38-0.36c-0.64,0-1.13,0.13-1.49,0.39c-0.23,0.16-0.35,0.38-0.35,0.66c0,0.26,0.11,0.48,0.33,0.65
					c0.27,0.24,0.93,0.48,2,0.73c1.05,0.25,1.84,0.51,2.34,0.77c0.51,0.27,0.91,0.64,1.19,1.1c0.28,0.47,0.43,1.04,0.43,1.71
					C55.77,51.57,55.6,52.14,55.25,52.68z M64,51.64h-4.3l-0.89,2.44H56.5l4.2-10.76H63l4.3,10.76h-2.36L64,51.64z M60.36,49.83
					h2.94l-1.47-4L60.36,49.83z"/>
			</g>
		</g>
		<path class="st0" d="M97.59,47.64c-0.11,0-0.22,0.01-0.32,0.03L92.3,37.23c0.37-0.31,0.61-0.78,0.61-1.3
			c0-0.88-0.67-1.6-1.53-1.69l-1.96-12.76c0.61-0.26,1.03-0.86,1.03-1.56c0-0.94-0.76-1.7-1.7-1.7c-0.44,0-0.84,0.17-1.14,0.45
			l-8.42-5.53c0.12-0.29,0.19-0.61,0.19-0.95c0-1.33-1.08-2.41-2.41-2.41c-0.71,0-1.34,0.31-1.78,0.79l-8.92-5.6
			c0.05-0.16,0.09-0.33,0.09-0.51c0-0.94-0.76-1.7-1.7-1.7c-0.79,0-1.44,0.53-1.64,1.26L51.76,3.87c-0.19-1.14-1.18-2.02-2.37-2.02
			c-1.2,0-2.19,0.88-2.37,2.02L38.64,4c-0.2-0.72-0.85-1.25-1.64-1.25c-0.94,0-1.7,0.76-1.7,1.7c0,0.16,0.03,0.31,0.07,0.46
			l-9.81,5.74c-0.31-0.31-0.74-0.51-1.21-0.51c-0.94,0-1.7,0.76-1.7,1.7c0,0.25,0.05,0.48,0.15,0.69l-8.96,7.1
			c-0.29-0.22-0.64-0.35-1.02-0.35c-0.94,0-1.7,0.76-1.7,1.7c0,0.68,0.4,1.26,0.97,1.53l-2,10.19c-0.01,0-0.02,0-0.04,0
			c-1.33,0-2.41,1.08-2.41,2.41c0,0.72,0.32,1.36,0.83,1.8l-5.61,9.3c-0.15-0.05-0.31-0.08-0.48-0.08c-0.94,0-1.7,0.76-1.7,1.7
			s0.76,1.7,1.7,1.7c0.08,0,0.16-0.01,0.24-0.02l4.53,10.78c-0.66,0.43-1.1,1.17-1.1,2.02c0,1.33,1.08,2.41,2.41,2.41
			c0.12,0,0.23-0.02,0.35-0.04l3.09,9.22c-0.47,0.3-0.78,0.83-0.78,1.43c0,0.94,0.76,1.7,1.7,1.7c0.45,0,0.85-0.18,1.16-0.46
			l8.32,5.3c-0.05,0.17-0.09,0.34-0.09,0.52c0,0.94,0.76,1.7,1.7,1.7c0.28,0,0.54-0.07,0.77-0.19l8.73,9.8
			c-0.18,0.27-0.29,0.6-0.29,0.95c0,0.94,0.76,1.7,1.7,1.7c0.82,0,1.5-0.58,1.67-1.35l10.42-0.47c0.24,1.08,1.2,1.88,2.35,1.88
			c1.15,0,2.11-0.81,2.35-1.88L62.03,95c0.16,0.77,0.85,1.35,1.67,1.35c0.94,0,1.7-0.76,1.7-1.7c0-0.29-0.08-0.56-0.21-0.79
			l9.54-8.73c0.27,0.17,0.58,0.28,0.93,0.28c0.94,0,1.7-0.76,1.7-1.7c0-0.15-0.03-0.3-0.06-0.44l8.03-4.56
			c0.31,0.32,0.74,0.52,1.22,0.52c0.94,0,1.7-0.76,1.7-1.7c0-0.58-0.29-1.09-0.74-1.4l3.98-10.9c0.05,0.01,0.11,0.02,0.16,0.02
			c0.94,0,1.7-0.76,1.7-1.7c0-0.55-0.27-1.04-0.68-1.35l4.65-11.17c0.08,0.01,0.16,0.02,0.24,0.02c0.94,0,1.7-0.76,1.7-1.7
			C99.29,48.4,98.53,47.64,97.59,47.64z M63.7,92.97c-0.77,0-1.41,0.51-1.62,1.2L51.65,93.7c-0.01-0.05-0.01-0.1-0.01-0.15
			l22.08-8.63l-9.09,8.31C64.36,93.08,64.05,92.97,63.7,92.97z M34.84,92.97c-0.28,0-0.54,0.07-0.77,0.19l-8.48-9.51l21.36,9.78
			c-0.02,0.09-0.04,0.18-0.05,0.28l-10.43,0.47C36.24,93.48,35.6,92.97,34.84,92.97z M64.65,6.16c0.45,0,0.86-0.18,1.17-0.47
			l8.38,5.26L52.55,4.73L63,4.86C63.19,5.6,63.85,6.16,64.65,6.16z M49.27,91.62c-0.82,0-1.54,0.41-1.98,1.04l-21.7-9.94
			c0.01-0.07,0.02-0.14,0.02-0.22l21.88-4.55c0.36,0.89,1.22,1.51,2.23,1.51c0.97,0,1.81-0.58,2.19-1.41l22.04,5.66
			c0,0.07,0.01,0.13,0.02,0.2l-22.66,8.85C50.9,92.08,50.14,91.62,49.27,91.62z M12.47,35.11c0-0.21-0.04-0.41-0.09-0.61l18.34-8.49
			c0.22,0.31,0.5,0.55,0.84,0.73l-9.07,27.9c-0.11-0.01-0.22-0.03-0.33-0.03c-0.27,0-0.53,0.05-0.77,0.14l-9.83-17.78
			C12.11,36.53,12.47,35.87,12.47,35.11z M75.14,13.75l-7.21,8.79c-0.35-0.19-0.74-0.31-1.17-0.31c-0.44,0-0.85,0.13-1.21,0.34
			L51.25,5.79c0.12-0.14,0.22-0.29,0.3-0.46l23.04,6.62c-0.01,0.08-0.02,0.16-0.02,0.24C74.56,12.79,74.78,13.33,75.14,13.75z
			 M74.88,57.03c0,0.38,0.09,0.73,0.25,1.05L51.4,75.32c-0.43-0.42-1.02-0.67-1.67-0.67s-1.23,0.26-1.67,0.67L24.33,58.08
			c0.15-0.32,0.25-0.67,0.25-1.05c0-0.92-0.52-1.71-1.27-2.11l9.07-27.9c0.11,0.01,0.21,0.03,0.33,0.03c1.19,0,2.17-0.86,2.37-1.99
			h29.33c0.2,1.13,1.18,1.99,2.37,1.99c0.11,0,0.22-0.02,0.32-0.03l9.07,27.9C75.4,55.32,74.88,56.11,74.88,57.03z M48.22,6.37
			c0.35,0.19,0.74,0.31,1.17,0.31c0.44,0,0.85-0.13,1.21-0.34l14.31,16.77c-0.26,0.31-0.44,0.68-0.51,1.09H35.06
			c-0.08-0.43-0.27-0.81-0.54-1.13L48.22,6.37z M23.83,58.77l23.73,17.24c-0.15,0.32-0.25,0.67-0.25,1.05
			c0,0.02,0.01,0.04,0.01,0.07l-21.88,4.55c-0.23-0.47-0.68-0.82-1.21-0.92l-1.48-21.38C23.17,59.26,23.54,59.05,23.83,58.77z
			 M75.34,82.05c-0.5,0.1-0.92,0.42-1.16,0.85l-22.06-5.67c0-0.06,0.02-0.12,0.02-0.18c0-0.38-0.09-0.73-0.25-1.05l23.73-17.24
			c0.3,0.29,0.68,0.5,1.1,0.6L75.34,82.05z M77.29,54.62c-0.11,0-0.22,0.02-0.33,0.03l-9.07-27.9c0.33-0.18,0.62-0.43,0.84-0.73
			l20.8,9.61c-0.02,0.1-0.03,0.2-0.03,0.3c0,0.44,0.17,0.83,0.44,1.14l-11.7,17.75C77.95,54.69,77.63,54.62,77.29,54.62z
			 M89.9,34.85l-20.81-9.61c0.05-0.19,0.09-0.4,0.09-0.61c0-0.6-0.23-1.14-0.58-1.56l7.21-8.79c0.35,0.19,0.74,0.31,1.17,0.31
			c0.3,0,0.59-0.06,0.85-0.16L90,34.73C89.96,34.77,89.93,34.81,89.9,34.85z M47.56,5.83l-13.7,16.71
			c-0.35-0.19-0.74-0.31-1.17-0.31c-0.33,0-0.65,0.07-0.94,0.19L25.6,13c0.28-0.3,0.45-0.7,0.45-1.14c0-0.02-0.01-0.05-0.01-0.07
			l21.2-6.42C47.34,5.53,47.44,5.68,47.56,5.83z M24.35,13.55c0.19,0,0.37-0.04,0.54-0.1l6.15,9.43c-0.47,0.44-0.76,1.06-0.76,1.75
			c0,0.21,0.04,0.41,0.09,0.61l-18.34,8.49c-0.11-0.15-0.23-0.29-0.37-0.41l12.2-19.85C24.01,13.52,24.18,13.55,24.35,13.55z
			 M10.34,37.49c0.17-0.02,0.33-0.06,0.48-0.11l9.83,17.78c-0.54,0.44-0.9,1.11-0.9,1.86c0,0.16,0.02,0.31,0.05,0.46l-9.28,3.59
			c-0.33-0.54-0.86-0.94-1.49-1.09L10.34,37.49z M10.83,61.87l9.28-3.59c0.38,0.62,1.03,1.05,1.79,1.13l1.48,21.39
			c-0.04,0.01-0.09,0.02-0.13,0.04l-13.01-16.9c0.39-0.43,0.63-0.99,0.63-1.62C10.88,62.17,10.86,62.02,10.83,61.87z M76.35,82.16
			c-0.05-0.02-0.11-0.04-0.17-0.06l1.38-22.69c0.71-0.08,1.32-0.46,1.7-1.02l10.72,4.86c-0.02,0.09-0.03,0.19-0.03,0.29
			c0,0.39,0.13,0.74,0.35,1.02L76.35,82.16z M90.35,62.48l-10.73-4.86c0.05-0.19,0.08-0.38,0.08-0.59c0-0.69-0.29-1.3-0.75-1.74
			l11.71-17.75c0.05,0.02,0.1,0.03,0.15,0.05l0.41,24.33C90.87,62.01,90.57,62.21,90.35,62.48z M87.14,19.38
			c-0.06,0.17-0.1,0.35-0.1,0.55c0,0.88,0.67,1.6,1.53,1.69l1.89,12.24L78.55,14c0.06-0.05,0.11-0.1,0.17-0.15L87.14,19.38z
			 M37.01,6.16c0.8,0,1.47-0.56,1.65-1.3l7.7-0.12L27.68,10.4l8.12-4.74C36.11,5.97,36.54,6.16,37.01,6.16z M12.91,22.68
			c0.89-0.05,1.6-0.79,1.6-1.69c0-0.25-0.05-0.48-0.15-0.69l8.36-6.63l-11.8,19.2c-0.01,0-0.02,0-0.03-0.01L12.91,22.68z M3.4,49.2
			c0.41-0.31,0.67-0.8,0.67-1.35c0-0.46-0.19-0.88-0.49-1.19l5.61-9.3c0.1,0.04,0.19,0.07,0.29,0.09l-1.31,22.5
			c-0.08,0.01-0.16,0.02-0.24,0.03L3.4,49.2z M9.67,64.6l12.45,16.19l-7.69-4.91c0.05-0.17,0.09-0.34,0.09-0.52
			c0-0.94-0.76-1.7-1.7-1.7c-0.04,0-0.08,0.01-0.12,0.01L9.67,64.6z M86.56,75.83c-0.94,0-1.7,0.76-1.7,1.7
			c0,0.15,0.03,0.3,0.06,0.44l-7.56,4.29l13-16.39l-3.64,9.97C86.67,75.84,86.61,75.83,86.56,75.83z M92.06,61.5l-0.39-23.65
			l4.83,10.19c-0.37,0.31-0.62,0.78-0.62,1.3c0,0.55,0.27,1.04,0.68,1.35L92.06,61.5z"/>
	</g>
</g>
<g>
	<path class="st2" d="M131.3,20.04c-0.49,0.3-1.11,0.45-1.88,0.45c-0.84,0-1.74-0.14-2.68-0.41c-0.95-0.28-1.85-0.7-2.71-1.27
		l-2.29,5.76c1.07,0.68,2.31,1.2,3.73,1.56c1.41,0.35,2.81,0.53,4.19,0.53c2.14,0,3.89-0.39,5.23-1.16
		c1.35-0.77,2.34-1.77,2.98-2.98c0.64-1.21,0.96-2.48,0.96-3.81c0-2.05-0.66-3.73-1.98-5.03c-0.75-0.74-1.69-1.26-2.82-1.58
		l3.71-4.35v-4.8h-14.97v5.9h7.18l-2.96,3.48v4.8h2.67c0.86,0,1.47,0.14,1.84,0.41c0.36,0.28,0.55,0.67,0.55,1.18
		C132.03,19.29,131.78,19.74,131.3,20.04z"/>
	<path class="st2" d="M142.3,11.46c0-0.91,0.2-1.58,0.61-2.02c0.4-0.43,0.94-0.65,1.59-0.65c0.09,0,0.18,0,0.26,0.01
		s0.17,0.01,0.28,0.03V6.27c-0.78,0-1.44,0.17-1.98,0.52c-0.35,0.23-0.63,0.53-0.86,0.89V6.41h-2.29v9.56h2.4L142.3,11.46
		L142.3,11.46z"/>
	<path class="st2" d="M147.46,15.5c0.63,0.41,1.33,0.61,2.11,0.61c0.73,0,1.35-0.18,1.87-0.53c0.27-0.19,0.51-0.43,0.72-0.72v1.11
		h2.29V2.79h-2.4v4.63c-0.19-0.24-0.4-0.45-0.65-0.61c-0.52-0.36-1.13-0.53-1.83-0.53c-0.78,0-1.48,0.2-2.11,0.6
		s-1.12,0.97-1.48,1.71c-0.36,0.73-0.55,1.6-0.55,2.61c0,0.99,0.18,1.86,0.55,2.59C146.34,14.52,146.83,15.09,147.46,15.5z
		 M148.14,9.77c0.19-0.39,0.44-0.69,0.76-0.91c0.32-0.21,0.68-0.32,1.08-0.32c0.39,0,0.74,0.11,1.06,0.32
		c0.32,0.21,0.57,0.52,0.76,0.91c0.19,0.39,0.28,0.86,0.28,1.42c0,0.54-0.1,1.02-0.28,1.41c-0.19,0.4-0.44,0.7-0.76,0.91
		c-0.32,0.21-0.67,0.32-1.06,0.32c-0.4,0-0.76-0.11-1.08-0.32s-0.57-0.52-0.76-0.91c-0.19-0.4-0.28-0.87-0.28-1.41
		C147.86,10.64,147.95,10.16,148.14,9.77z"/>
	<polygon class="st0" points="181.38,20.22 171.34,20.22 171.34,17.17 179.83,17.17 179.83,11.54 171.34,11.54 171.34,8.83 
		181.01,8.83 181.01,2.93 164.69,2.93 164.69,26.11 181.38,26.11 	"/>
	<polygon class="st0" points="199.11,20.05 190.05,20.05 190.05,2.93 183.28,2.93 183.28,26.11 199.11,26.11 	"/>
	<rect x="200.26" y="2.93" class="st0" width="6.77" height="23.18"/>
	<polygon class="st0" points="213.94,26.11 220.71,26.11 220.71,8.99 226.59,8.99 226.59,2.93 208.06,2.93 208.06,8.99 213.94,8.99 
			"/>
	<polygon class="st0" points="244.32,20.22 234.28,20.22 234.28,17.17 242.77,17.17 242.77,11.54 234.28,11.54 234.28,8.83 
		243.94,8.83 243.94,2.93 227.62,2.93 227.62,26.11 244.32,26.11 	"/>
	<path class="st0" d="M130.87,45.1c0.41-0.51,0.9-0.89,1.48-1.16s1.21-0.4,1.92-0.4c0.9,0,1.71,0.24,2.42,0.71
		c0.72,0.48,1.37,1.14,1.96,2l4.27-4.4c-0.99-1.5-2.25-2.65-3.77-3.44c-1.52-0.79-3.27-1.19-5.23-1.19c-1.61,0-3.09,0.29-4.46,0.88
		c-1.37,0.59-2.55,1.42-3.56,2.5c-1,1.08-1.78,2.36-2.34,3.84c-0.55,1.48-0.83,3.11-0.83,4.9s0.28,3.42,0.83,4.9
		s1.33,2.76,2.34,3.84c1,1.08,2.19,1.92,3.56,2.5s2.85,0.88,4.46,0.88c1.97,0,3.71-0.4,5.23-1.21c1.52-0.81,2.78-1.95,3.77-3.43
		l-4.27-4.41c-0.59,0.86-1.25,1.53-1.96,2s-1.53,0.71-2.42,0.71c-0.71,0-1.35-0.13-1.92-0.4s-1.07-0.65-1.48-1.16
		s-0.73-1.12-0.96-1.84s-0.34-1.52-0.34-2.4s0.11-1.68,0.34-2.4C130.13,46.22,130.45,45.61,130.87,45.1z"/>
	<path class="st0" d="M162.38,40.65c-1.01-1.09-2.21-1.94-3.59-2.53c-1.38-0.6-2.89-0.89-4.53-0.89c-1.63,0-3.13,0.3-4.52,0.89
		c-1.39,0.6-2.59,1.44-3.6,2.53c-1.01,1.09-1.8,2.37-2.37,3.84c-0.56,1.47-0.85,3.09-0.85,4.85c0,1.74,0.28,3.36,0.85,4.84
		c0.56,1.48,1.35,2.76,2.37,3.86c1.01,1.09,2.21,1.94,3.6,2.53c1.39,0.6,2.9,0.89,4.55,0.89c1.63,0,3.13-0.3,4.5-0.89
		c1.38-0.6,2.57-1.44,3.59-2.53c1.01-1.09,1.8-2.38,2.37-3.86c0.56-1.48,0.85-3.09,0.85-4.84c0-1.77-0.28-3.38-0.85-4.85
		C164.18,43.02,163.39,41.74,162.38,40.65z M158.42,51.77c-0.23,0.72-0.55,1.32-0.96,1.82s-0.89,0.88-1.43,1.14
		c-0.55,0.26-1.13,0.4-1.76,0.4c-0.63,0-1.22-0.13-1.76-0.4s-1.02-0.65-1.43-1.14s-0.73-1.1-0.96-1.82s-0.34-1.53-0.34-2.43
		s0.11-1.72,0.34-2.43c0.23-0.72,0.55-1.32,0.96-1.82s0.89-0.88,1.43-1.14s1.13-0.4,1.76-0.4c0.63,0,1.22,0.13,1.76,0.4
		s1.02,0.65,1.43,1.14c0.41,0.5,0.73,1.1,0.96,1.82c0.23,0.72,0.34,1.53,0.34,2.43S158.65,51.06,158.42,51.77z"/>
	<polygon class="st0" points="180.53,48.29 172.9,37.75 167.34,37.75 167.34,60.93 173.94,60.93 173.94,50.39 181.57,60.93 
		187.13,60.93 187.13,37.75 180.53,37.75 	"/>
	<polygon class="st0" points="189.68,60.93 196.45,60.93 196.45,53.51 204.83,53.51 204.83,47.62 196.45,47.62 196.45,43.64 
		206.01,43.64 206.01,37.75 189.68,37.75 	"/>
	<polygon class="st0" points="214.09,51.99 222.59,51.99 222.59,46.36 214.09,46.36 214.09,43.64 223.76,43.64 223.76,37.75 
		207.44,37.75 207.44,60.93 224.13,60.93 224.13,55.04 214.09,55.04 	"/>
	<path class="st0" d="M243.73,51.11c0.75-1.29,1.12-2.83,1.12-4.62s-0.37-3.34-1.12-4.65s-1.8-2.32-3.17-3.03s-2.99-1.06-4.86-1.06
		h-9.67v23.18h6.77V55.1h1.84l3.41,5.83h7.23l-4.22-7.15C242.17,53.12,243.08,52.24,243.73,51.11z M237.34,44.5
		c0.45,0.49,0.67,1.15,0.67,1.99s-0.22,1.5-0.67,1.99s-1.14,0.73-2.08,0.73h-2.47v-5.43h2.47C236.2,43.78,236.89,44.02,237.34,44.5z
		"/>
	<polygon class="st0" points="253.34,51.99 261.83,51.99 261.83,46.36 253.34,46.36 253.34,43.64 263,43.64 263,37.75 246.68,37.75 
		246.68,60.93 263.38,60.93 263.38,55.04 253.34,55.04 	"/>
	<polygon class="st0" points="278.46,48.29 270.83,37.75 265.27,37.75 265.27,60.93 271.87,60.93 271.87,50.39 279.5,60.93 
		285.06,60.93 285.06,37.75 278.46,37.75 	"/>
	<path class="st0" d="M294.94,45.1c0.41-0.51,0.9-0.89,1.48-1.16c0.57-0.27,1.21-0.4,1.92-0.4c0.9,0,1.71,0.24,2.42,0.71
		c0.72,0.48,1.37,1.14,1.96,2l4.27-4.4c-1-1.5-2.25-2.65-3.77-3.44s-3.27-1.19-5.24-1.19c-1.61,0-3.09,0.29-4.46,0.88
		s-2.55,1.42-3.56,2.5c-1,1.08-1.78,2.36-2.34,3.84s-0.83,3.11-0.83,4.9s0.28,3.42,0.83,4.9s1.33,2.76,2.34,3.84
		c1,1.08,2.19,1.92,3.56,2.5s2.85,0.88,4.46,0.88c1.97,0,3.71-0.4,5.24-1.21s2.78-1.95,3.77-3.43l-4.27-4.41
		c-0.59,0.86-1.25,1.53-1.96,2s-1.53,0.71-2.42,0.71c-0.71,0-1.35-0.13-1.92-0.4c-0.57-0.26-1.07-0.65-1.48-1.16
		s-0.73-1.12-0.96-1.84s-0.34-1.52-0.34-2.4s0.11-1.68,0.34-2.4C294.21,46.22,294.53,45.61,294.94,45.1z"/>
	<polygon class="st0" points="314.89,55.04 314.89,51.99 323.38,51.99 323.38,46.36 314.89,46.36 314.89,43.64 324.56,43.64 
		324.56,37.75 308.24,37.75 308.24,60.93 324.93,60.93 324.93,55.04 	"/>
</g>
<path class="st2" d="M309.09,66.12H138.5c-8.75,0-15.84,7.09-15.84,15.84l0,0c0,8.75,7.09,15.84,15.84,15.84h170.59
	c8.75,0,15.84-7.09,15.84-15.84l0,0C324.93,73.22,317.84,66.12,309.09,66.12z"/>
<g>
	<path class="st0" d="M134.82,89.2V76.89l1.44,1.6h-3.64V75.5h5.56v13.7H134.82z"/>
	<path class="st0" d="M146.82,85.05V82.2h4.95v2.86L146.82,85.05L146.82,85.05z"/>
	<path class="st0" d="M159.66,86.58v-2.52l5.32-8.55h3.48l-5.17,8.55l-1.59-0.55h9.27v3.07H159.66z M165.94,89.2v-2.62l0.1-3.07
		v-2.33h3.17v8.02H165.94z"/>
	<path class="st0" d="M184.87,89.48c-0.95,0-1.83-0.18-2.63-0.53s-1.5-0.85-2.09-1.5s-1.05-1.4-1.38-2.26s-0.49-1.81-0.49-2.84
		s0.16-1.98,0.49-2.84c0.33-0.86,0.79-1.61,1.38-2.26c0.59-0.65,1.29-1.15,2.09-1.5s1.68-0.53,2.63-0.53c0.96,0,1.84,0.18,2.64,0.53
		s1.49,0.85,2.08,1.5s1.05,1.4,1.38,2.26s0.5,1.81,0.5,2.84s-0.17,1.98-0.5,2.85s-0.79,1.62-1.38,2.26
		c-0.59,0.64-1.28,1.14-2.08,1.49C186.71,89.3,185.83,89.48,184.87,89.48z M184.87,86.27c0.45,0,0.87-0.09,1.26-0.27
		s0.73-0.45,1.02-0.79s0.51-0.76,0.68-1.24c0.16-0.48,0.25-1.02,0.25-1.6c0-0.6-0.08-1.14-0.25-1.61c-0.16-0.48-0.39-0.89-0.68-1.23
		s-0.63-0.61-1.02-0.79s-0.81-0.27-1.26-0.27s-0.87,0.09-1.26,0.27s-0.73,0.45-1.02,0.79s-0.51,0.76-0.68,1.23
		c-0.16,0.48-0.25,1.01-0.25,1.61c0,0.59,0.08,1.12,0.25,1.6c0.16,0.48,0.39,0.9,0.68,1.24s0.63,0.61,1.02,0.79
		S184.42,86.27,184.87,86.27z"/>
	<path class="st0" d="M198.62,89.38c-1.02,0-1.92-0.23-2.72-0.7s-1.42-1.12-1.87-1.95c-0.45-0.83-0.68-1.78-0.68-2.85
		s0.23-2.02,0.68-2.84s1.08-1.46,1.87-1.93c0.8-0.46,1.7-0.69,2.72-0.69c1.04,0,1.94,0.25,2.69,0.76s1.29,1.23,1.61,2.15l-2.49,1.47
		c-0.21-0.5-0.48-0.86-0.8-1.09s-0.66-0.34-1.03-0.34s-0.71,0.1-1.02,0.29c-0.31,0.2-0.55,0.48-0.72,0.85
		c-0.17,0.37-0.26,0.83-0.26,1.36c0,0.55,0.09,1.01,0.26,1.39s0.42,0.67,0.72,0.86c0.3,0.2,0.64,0.29,1.02,0.29s0.72-0.11,1.03-0.34
		s0.58-0.59,0.8-1.09l2.49,1.47c-0.32,0.93-0.85,1.64-1.61,2.15S199.66,89.38,198.62,89.38z"/>
	<path class="st0" d="M204.17,81.77v-2.78h6.66v2.78H204.17z M209.24,89.38c-1.17,0-2.09-0.33-2.75-1.01
		c-0.66-0.67-0.98-1.69-0.98-3.04v-9.1h3.22v9.06c0,0.38,0.09,0.67,0.27,0.89c0.18,0.21,0.41,0.32,0.7,0.32
		c0.38,0,0.71-0.11,0.98-0.33l0.8,2.6c-0.27,0.21-0.6,0.36-1,0.46S209.67,89.38,209.24,89.38z"/>
	<path class="st0" d="M217.91,89.38c-1.01,0-1.9-0.23-2.68-0.7c-0.78-0.47-1.39-1.12-1.84-1.95c-0.45-0.83-0.67-1.78-0.67-2.85
		s0.22-2.02,0.67-2.84s1.06-1.46,1.84-1.93c0.78-0.46,1.67-0.69,2.68-0.69s1.9,0.23,2.69,0.69c0.79,0.46,1.4,1.11,1.84,1.93
		s0.66,1.77,0.66,2.84s-0.22,2.02-0.66,2.85s-1.05,1.48-1.84,1.95C219.81,89.14,218.91,89.38,217.91,89.38z M217.91,86.42
		c0.37,0,0.7-0.1,0.99-0.29c0.29-0.2,0.52-0.49,0.69-0.87c0.17-0.38,0.25-0.84,0.25-1.38s-0.08-0.99-0.25-1.36s-0.4-0.66-0.69-0.85
		c-0.29-0.2-0.62-0.29-0.99-0.29c-0.36,0-0.69,0.1-0.97,0.29c-0.29,0.2-0.52,0.48-0.7,0.85c-0.17,0.37-0.26,0.83-0.26,1.36
		s0.09,1,0.26,1.38s0.41,0.67,0.7,0.87C217.22,86.32,217.54,86.42,217.91,86.42z"/>
	<path class="st0" d="M225.43,89.2V74.68h3.22v5.7l-0.17,3.5l0.02,3.5v1.82H225.43z M231.21,89.38c-0.82,0-1.51-0.2-2.06-0.59
		s-0.96-0.99-1.23-1.8c-0.27-0.81-0.41-1.85-0.41-3.11c0-1.24,0.14-2.26,0.43-3.07s0.71-1.41,1.26-1.8s1.22-0.59,2-0.59
		c0.84,0,1.6,0.22,2.28,0.67c0.68,0.44,1.23,1.07,1.63,1.89s0.6,1.78,0.6,2.91c0,1.13-0.2,2.11-0.6,2.93s-0.94,1.45-1.63,1.9
		S232.05,89.38,231.21,89.38z M230.53,86.42c0.36,0,0.69-0.1,0.97-0.29c0.29-0.2,0.52-0.49,0.7-0.87c0.17-0.38,0.26-0.84,0.26-1.38
		s-0.09-0.99-0.26-1.36c-0.18-0.37-0.41-0.66-0.7-0.85c-0.29-0.2-0.61-0.29-0.97-0.29s-0.69,0.1-0.97,0.29
		c-0.29,0.2-0.52,0.48-0.69,0.85c-0.18,0.37-0.26,0.83-0.26,1.36s0.09,1,0.26,1.38s0.41,0.67,0.69,0.87
		C229.85,86.32,230.17,86.42,230.53,86.42z"/>
	<path class="st0" d="M242.87,89.38c-1.08,0-2.03-0.24-2.84-0.71c-0.81-0.48-1.44-1.13-1.88-1.96s-0.67-1.77-0.67-2.83
		s0.22-2,0.65-2.83s1.04-1.47,1.8-1.94c0.77-0.46,1.63-0.69,2.59-0.69c0.9,0,1.73,0.21,2.47,0.64c0.75,0.42,1.34,1.05,1.78,1.87
		s0.66,1.82,0.66,2.99c0,0.13-0.01,0.28-0.02,0.45c-0.01,0.17-0.02,0.33-0.03,0.47h-7.27v-1.96h5.56l-1.22,0.55
		c0.01-0.48-0.07-0.9-0.23-1.25c-0.16-0.35-0.39-0.63-0.68-0.82s-0.62-0.29-1.01-0.29c-0.38,0-0.72,0.1-1.01,0.29
		s-0.51,0.47-0.67,0.83s-0.24,0.78-0.24,1.26v0.57c0,0.52,0.09,0.97,0.28,1.35s0.46,0.67,0.81,0.87c0.35,0.2,0.77,0.3,1.25,0.3
		c0.45,0,0.84-0.08,1.16-0.23s0.64-0.38,0.96-0.69l1.69,2.04c-0.44,0.56-0.98,0.99-1.63,1.28
		C244.52,89.23,243.75,89.38,242.87,89.38z"/>
	<path class="st0" d="M249.79,89.2V78.59h3.07v3.09l-0.46-0.88c0.27-0.8,0.71-1.39,1.32-1.79s1.35-0.6,2.22-0.6v3.35
		c-0.15-0.03-0.27-0.04-0.38-0.05s-0.22-0.01-0.35-0.01c-0.66,0-1.19,0.21-1.59,0.62c-0.41,0.41-0.61,1.08-0.61,2.01v4.87H249.79z"
		/>
	<path class="st0" d="M257.62,92.27l1.27-5.09l0.46,2.11c-0.57,0-1.03-0.19-1.39-0.58c-0.36-0.38-0.54-0.9-0.54-1.56
		c0-0.68,0.18-1.21,0.55-1.6s0.83-0.59,1.38-0.59c0.55,0,1.01,0.2,1.37,0.6s0.54,0.93,0.54,1.59c0,0.18-0.01,0.37-0.03,0.55
		s-0.07,0.4-0.15,0.67c-0.08,0.26-0.2,0.61-0.37,1.04l-1.07,2.86H257.62z"/>
	<path class="st0" d="M268.87,89.2v-2.43l4.44-4.79c0.32-0.34,0.55-0.64,0.7-0.9c0.15-0.26,0.25-0.5,0.31-0.71s0.08-0.41,0.08-0.6
		c0-0.44-0.13-0.79-0.38-1.04s-0.63-0.37-1.14-0.37c-0.43,0-0.83,0.11-1.2,0.33c-0.37,0.22-0.68,0.55-0.92,1l-2.49-1.61
		c0.44-0.86,1.08-1.55,1.92-2.07c0.84-0.52,1.84-0.78,3-0.78c0.92,0,1.72,0.17,2.41,0.51c0.69,0.34,1.23,0.82,1.62,1.45
		c0.39,0.63,0.58,1.36,0.58,2.21c0,0.44-0.05,0.88-0.15,1.32s-0.3,0.9-0.58,1.39s-0.71,1.03-1.28,1.63l-3.53,3.76l-0.56-1.37h6.42
		v3.07C278.12,89.2,268.87,89.2,268.87,89.2z"/>
	<path class="st0" d="M285.18,89.48c-1.02,0-1.92-0.28-2.7-0.84s-1.4-1.37-1.86-2.43s-0.68-2.34-0.68-3.86s0.23-2.8,0.68-3.86
		s1.07-1.87,1.86-2.43c0.79-0.56,1.69-0.84,2.7-0.84s1.9,0.28,2.69,0.84s1.4,1.37,1.86,2.43s0.68,2.34,0.68,3.86
		s-0.23,2.8-0.68,3.86s-1.07,1.87-1.86,2.43C287.08,89.19,286.18,89.48,285.18,89.48z M285.18,86.31c0.36,0,0.68-0.13,0.96-0.39
		s0.49-0.68,0.65-1.26s0.24-1.35,0.24-2.3c0-0.96-0.08-1.74-0.24-2.31s-0.38-0.99-0.65-1.25c-0.28-0.26-0.6-0.39-0.96-0.39
		s-0.68,0.13-0.96,0.39s-0.5,0.68-0.66,1.25s-0.25,1.34-0.25,2.31c0,0.95,0.08,1.72,0.25,2.3c0.16,0.58,0.38,1,0.66,1.26
		S284.82,86.31,285.18,86.31z"/>
	<path class="st0" d="M292.21,89.2v-2.43l4.44-4.79c0.32-0.34,0.55-0.64,0.7-0.9c0.15-0.26,0.25-0.5,0.31-0.71s0.08-0.41,0.08-0.6
		c0-0.44-0.13-0.79-0.38-1.04s-0.63-0.37-1.14-0.37c-0.43,0-0.83,0.11-1.2,0.33c-0.37,0.22-0.68,0.55-0.92,1l-2.49-1.61
		c0.44-0.86,1.08-1.55,1.92-2.07c0.84-0.52,1.84-0.78,3-0.78c0.92,0,1.72,0.17,2.41,0.51c0.69,0.34,1.23,0.82,1.62,1.45
		c0.39,0.63,0.58,1.36,0.58,2.21c0,0.44-0.05,0.88-0.15,1.32s-0.3,0.9-0.58,1.39s-0.71,1.03-1.28,1.63l-3.53,3.76l-0.56-1.37h6.42
		v3.07C301.46,89.2,292.21,89.2,292.21,89.2z"/>
	<path class="st0" d="M303.08,86.58v-2.52l5.32-8.55h3.47l-5.17,8.55l-1.59-0.55h9.27v3.07H303.08z M309.35,89.2v-2.62l0.1-3.07
		v-2.33h3.17v8.02H309.35z"/>
</g>
</svg>
