<?xml version="1.0" encoding="utf-8"?>
<!-- Generator: Adobe Illustrator 28.0.0, SVG Export Plug-In . SVG Version: 6.00 Build 0)  -->
<svg version="1.1" id="Layer_1" xmlns="http://www.w3.org/2000/svg" x="0px" y="0px"
	 viewBox="0 0 394.6 112.3" style="enable-background:new 0 0 394.6 112.3;" xml:space="preserve">
<style type="text/css">
	.st0{fill:#1A5180;}
	.st1{opacity:0.8;}
	.st2{fill:#414042;}
	.st3{fill:#FFFFFF;}
</style>
<g>
	<g>
		<g>
			<rect x="119.2" y="9.6" class="st0" width="2.1" height="94.8"/>
		</g>
		<g>
			<g>
				<g>
					<g class="st1">
						<path class="st0" d="M73.9,32.6H39.9L29.3,65l27.6,20l27.6-20L73.9,32.6z M51,62h-2.3l-2.1-8l-2.1,8h-2.4l-2.6-10.8h2.2
							l1.6,7.4l2-7.4h2.6l1.9,7.5l1.6-7.5h2.2L51,62z M62.4,60.6c-0.3,0.5-0.8,0.9-1.5,1.2c-0.6,0.3-1.4,0.4-2.3,0.4
							c-1.4,0-2.4-0.3-3.1-0.9c-0.7-0.6-1.2-1.5-1.3-2.8l2.1-0.2c0.1,0.7,0.4,1.2,0.8,1.6c0.4,0.3,0.9,0.5,1.6,0.5
							c0.7,0,1.2-0.2,1.6-0.4c0.4-0.3,0.5-0.6,0.5-1c0-0.2-0.1-0.5-0.2-0.7c-0.1-0.2-0.4-0.3-0.8-0.5c-0.2-0.1-0.8-0.2-1.7-0.5
							c-1.2-0.3-2-0.7-2.5-1.1c-0.7-0.6-1-1.3-1-2.2c0-0.6,0.2-1.1,0.5-1.5c0.3-0.5,0.8-0.8,1.3-1.1c0.6-0.2,1.3-0.4,2.1-0.4
							c1.3,0,2.4,0.3,3,0.9c0.7,0.6,1,1.4,1.1,2.4l-2.2,0.1c-0.1-0.6-0.3-0.9-0.6-1.2c-0.3-0.2-0.8-0.4-1.4-0.4
							c-0.6,0-1.1,0.1-1.5,0.4c-0.2,0.2-0.3,0.4-0.3,0.7c0,0.3,0.1,0.5,0.3,0.7c0.3,0.2,0.9,0.5,2,0.7c1.1,0.2,1.8,0.5,2.3,0.8
							c0.5,0.3,0.9,0.6,1.2,1.1c0.3,0.5,0.4,1,0.4,1.7C62.9,59.5,62.8,60.1,62.4,60.6z M71.2,59.6h-4.3L66,62h-2.3l4.2-10.8h2.3
							L74.5,62h-2.4L71.2,59.6z M67.5,57.8h2.9l-1.5-4L67.5,57.8z"/>
					</g>
				</g>
				<g>
					<path class="st0" d="M56.4,102.4l-0.2-0.1L30.8,90.7L15.2,70.4l1.6-27.5l0.1-0.1l14.4-23.4l0.2,0l25.2-7.6l27.9,8l14.4,24
						l0.5,27.9l-0.1,0.1L83.1,92L56.4,102.4z M31.4,90l25.1,11.5l26.1-10.2l15.8-20L97.9,44L83.9,20.5l-27.3-7.8l-24.8,7.5l-14.2,23
						l-1.6,27L31.4,90z"/>
				</g>
				<g>
					<path class="st0" d="M83.2,92.2l-26.3-6.8l-26.2,5.4l-1.8-25.8L16.6,42.9l23-10.6l17-20.7l17.6,20.7L99,43.7L84.9,65.1
						L83.2,92.2z M56.9,84.6L56.9,84.6l25.5,6.6L84,64.8L97.7,44L73.7,32.9l-0.1-0.1l-17-20l-16.4,20L40,33L17.8,43.2l11.9,21.6
						l0,0.1l1.7,24.9L56.9,84.6z"/>
				</g>
				<g>
					<path class="st0" d="M41.8,103l-0.1-0.2L30.8,90.7l-11.2-7.1l-4.4-13.2L9.1,55.7l7.8-12.9l2.8-14.2l11.7-9.2L44.1,12l12.5-0.2
						L71.9,12l12.4,7.8l11.9,7.8l2.5,16.1l6.4,13.5l-6,14.4l-5.2,14.1l-11,6.2L71,103l-14.6-0.7L41.8,103z M56.4,101.5l14.3,0.6
						l11.9-10.9l10.8-6.1l5.1-13.8l5.9-14l-6.3-13.4l-2.4-15.8l-11.6-7.6l-12.2-7.7l-15.1-0.2l-12.3,0.2l-12.6,7.3l-11.4,9
						l-2.8,14.1L10,55.8l6,14.3L20.3,83l11.1,7.1l10.8,12.1L56.4,101.5z"/>
				</g>
				<g>
					
						<rect x="15.1" y="67.2" transform="matrix(0.9329 -0.36 0.36 0.9329 -22.8374 12.6271)" class="st0" width="14.7" height="0.9"/>
				</g>
				<g>
					
						<rect x="91.2" y="60.3" transform="matrix(0.4126 -0.9109 0.9109 0.4126 -8.3206 123.5514)" class="st0" width="0.9" height="15.8"/>
				</g>
				<g>
					
						<rect x="71" y="25.9" transform="matrix(0.6348 -0.7727 0.7727 0.6348 8.4988 70.6832)" class="st0" width="16.1" height="0.9"/>
				</g>
				<g>
					
						<rect x="35.3" y="18.5" transform="matrix(0.8374 -0.5466 0.5466 0.8374 -8.5075 23.7631)" class="st0" width="0.9" height="15.3"/>
				</g>
				<g>
					<path class="st0" d="M56.9,85.5L28.8,65.1l10.7-33h34.7l10.7,33L56.9,85.5z M29.8,64.8l27.1,19.7L84,64.8L73.6,33H40.2
						L29.8,64.8z"/>
				</g>
				<g>
					<circle class="st0" cx="56.9" cy="85" r="2.4"/>
				</g>
				<g>
					<circle class="st0" cx="29.3" cy="65" r="2.4"/>
				</g>
				<g>
					<circle class="st0" cx="84.5" cy="65" r="2.4"/>
				</g>
				<g>
					<circle class="st0" cx="73.9" cy="32.6" r="2.4"/>
				</g>
				<g>
					<circle class="st0" cx="39.9" cy="32.6" r="2.4"/>
				</g>
				<g>
					<circle class="st0" cx="44.2" cy="12.4" r="1.7"/>
				</g>
				<g>
					<circle class="st0" cx="31.5" cy="19.8" r="1.7"/>
				</g>
				<g>
					<circle class="st0" cx="20" cy="28.9" r="1.7"/>
				</g>
				<g>
					<circle class="st0" cx="9.5" cy="55.8" r="1.7"/>
				</g>
				<g>
					<circle class="st0" cx="20" cy="83.3" r="1.7"/>
				</g>
				<g>
					<circle class="st0" cx="31.1" cy="90.4" r="1.7"/>
				</g>
				<g>
					<circle class="st0" cx="42" cy="102.6" r="1.7"/>
				</g>
				<g>
					<circle class="st0" cx="70.9" cy="102.6" r="1.7"/>
				</g>
				<g>
					<circle class="st0" cx="82.8" cy="91.7" r="1.7"/>
				</g>
				<g>
					<circle class="st0" cx="93.7" cy="85.5" r="1.7"/>
				</g>
				<g>
					<circle class="st0" cx="98.8" cy="71.5" r="1.7"/>
				</g>
				<g>
					<circle class="st0" cx="104.7" cy="57.3" r="1.7"/>
				</g>
				<g>
					<circle class="st0" cx="98.4" cy="43.9" r="1.7"/>
				</g>
				<g>
					<circle class="st0" cx="95.9" cy="27.9" r="1.7"/>
				</g>
				<g>
					<circle class="st0" cx="17.2" cy="43" r="2.4"/>
				</g>
				<g>
					<circle class="st0" cx="15.6" cy="70.3" r="2.4"/>
				</g>
				<g>
					<circle class="st0" cx="56.4" cy="102" r="2.4"/>
				</g>
				<g>
					<circle class="st0" cx="84.1" cy="20.1" r="2.4"/>
				</g>
				<g>
					<circle class="st0" cx="56.6" cy="12.2" r="2.4"/>
				</g>
				<g>
					<circle class="st0" cx="71.8" cy="12.4" r="1.7"/>
				</g>
			</g>
		</g>
		<g>
			<g>
				<path class="st0" d="M143.9,39.1c-1.7,0-3.3-0.2-5-0.6c-1.7-0.4-3.2-1-4.5-1.9l2.8-6.9c1,0.7,2.1,1.2,3.3,1.5
					c1.1,0.3,2.2,0.5,3.2,0.5c0.9,0,1.7-0.2,2.3-0.5s0.9-0.9,0.9-1.6c0-0.6-0.2-1.1-0.7-1.4c-0.4-0.3-1.2-0.5-2.2-0.5h-3.2v-5.8
					l6.3-7.3l0.7,3.2h-12.1v-7.1h18v5.8l-6.3,7.3l-3.9-2.6h2.1c3,0,5.4,0.8,6.9,2.4c1.6,1.6,2.4,3.6,2.4,6.1c0,1.6-0.4,3.1-1.2,4.6
					c-0.8,1.5-2,2.7-3.6,3.6C148.6,38.6,146.4,39.1,143.9,39.1z"/>
				<path class="st0" d="M156.8,25.2V12.4h4.3v3.8l-0.7-1.1c0.3-1,0.9-1.7,1.6-2.2s1.6-0.7,2.7-0.7v4.6c-0.2,0-0.4-0.1-0.5-0.1
					c-0.2,0-0.3,0-0.5,0c-0.7,0-1.2,0.2-1.7,0.6c-0.4,0.4-0.7,1.1-0.7,2.1v5.6H156.8z"/>
				<path class="st0" d="M170.7,25.4c-1,0-1.8-0.3-2.6-0.8c-0.8-0.5-1.5-1.3-1.9-2.3c-0.5-1-0.7-2.2-0.7-3.5s0.2-2.5,0.7-3.5
					c0.5-1,1.1-1.7,1.9-2.3c0.8-0.5,1.7-0.8,2.6-0.8c1,0,1.8,0.2,2.4,0.7c0.6,0.5,1.1,1.2,1.4,2.2c0.3,1,0.4,2.2,0.4,3.7
					c0,1.5-0.1,2.8-0.4,3.7c-0.3,1-0.7,1.7-1.3,2.2S171.7,25.4,170.7,25.4z M171.8,21.3c0.3,0,0.6-0.1,0.9-0.3
					c0.3-0.2,0.5-0.5,0.6-0.8s0.2-0.8,0.2-1.4c0-0.6-0.1-1-0.2-1.4c-0.2-0.4-0.4-0.6-0.6-0.8c-0.3-0.2-0.6-0.3-0.9-0.3
					s-0.6,0.1-0.9,0.3s-0.5,0.5-0.6,0.8c-0.2,0.4-0.2,0.8-0.2,1.4c0,0.5,0.1,1,0.2,1.4s0.4,0.7,0.6,0.8
					C171.1,21.2,171.4,21.3,171.8,21.3z M173.7,25.2v-1.7l0-4.6l-0.2-4.6V7.9h4.6v17.2H173.7z"/>
				<path class="st2" d="M199.4,31.3h12.1v7.1h-20.1V10.5H211v7.1h-11.6V31.3z M198.8,20.9h10.8v6.8h-10.8V20.9z"/>
				<path class="st2" d="M214.6,38.4V10.5h8.2v20.6h10.9v7.3H214.6z"/>
				<path class="st2" d="M235.9,38.4V10.5h8.2v27.9H235.9z"/>
				<path class="st2" d="M253.2,38.4V17.8h-7.1v-7.3h22.3v7.3h-7.1v20.6H253.2z"/>
				<path class="st2" d="M278.6,31.3h12.1v7.1h-20.1V10.5h19.7v7.1h-11.6V31.3z M278,20.9h10.8v6.8H278V20.9z"/>
				<path class="st2" d="M149,71.9c-1.9,0-3.7-0.4-5.4-1.1c-1.6-0.7-3.1-1.7-4.3-3c-1.2-1.3-2.1-2.8-2.8-4.6c-0.7-1.8-1-3.7-1-5.9
					s0.3-4.1,1-5.9c0.7-1.8,1.6-3.3,2.8-4.6c1.2-1.3,2.6-2.3,4.3-3c1.6-0.7,3.4-1.1,5.4-1.1c2.4,0,4.5,0.5,6.3,1.4s3.3,2.3,4.5,4.1
					l-5.1,5.3c-0.7-1-1.5-1.8-2.4-2.4c-0.9-0.6-1.8-0.9-2.9-0.9c-0.9,0-1.6,0.2-2.3,0.5c-0.7,0.3-1.3,0.8-1.8,1.4
					c-0.5,0.6-0.9,1.3-1.2,2.2c-0.3,0.9-0.4,1.8-0.4,2.9s0.1,2,0.4,2.9c0.3,0.9,0.7,1.6,1.2,2.2c0.5,0.6,1.1,1.1,1.8,1.4
					c0.7,0.3,1.5,0.5,2.3,0.5c1.1,0,2.1-0.3,2.9-0.9c0.9-0.6,1.7-1.4,2.4-2.4l5.1,5.3c-1.2,1.8-2.7,3.2-4.5,4.1S151.4,71.9,149,71.9
					z"/>
				<path class="st2" d="M174.4,71.9c-2,0-3.8-0.4-5.5-1.1s-3.1-1.7-4.3-3.1c-1.2-1.3-2.2-2.9-2.8-4.6c-0.7-1.8-1-3.7-1-5.8
					c0-2.1,0.3-4.1,1-5.8c0.7-1.8,1.6-3.3,2.8-4.6c1.2-1.3,2.7-2.3,4.3-3.1s3.5-1.1,5.4-1.1c2,0,3.8,0.4,5.5,1.1s3.1,1.7,4.3,3.1
					c1.2,1.3,2.2,2.9,2.8,4.6c0.7,1.8,1,3.7,1,5.8c0,2.1-0.3,4-1,5.8c-0.7,1.8-1.6,3.3-2.8,4.6c-1.2,1.3-2.7,2.3-4.3,3.1
					S176.4,71.9,174.4,71.9z M174.4,64.3c0.8,0,1.5-0.2,2.1-0.5c0.7-0.3,1.2-0.8,1.7-1.4c0.5-0.6,0.9-1.3,1.2-2.2
					c0.3-0.9,0.4-1.8,0.4-2.9s-0.1-2.1-0.4-2.9s-0.7-1.6-1.2-2.2c-0.5-0.6-1.1-1.1-1.7-1.4c-0.7-0.3-1.4-0.5-2.1-0.5
					s-1.5,0.2-2.1,0.5c-0.7,0.3-1.2,0.8-1.7,1.4c-0.5,0.6-0.9,1.3-1.2,2.2c-0.3,0.9-0.4,1.8-0.4,2.9s0.1,2.1,0.4,2.9
					c0.3,0.9,0.7,1.6,1.2,2.2c0.5,0.6,1.1,1.1,1.7,1.4C172.9,64.1,173.6,64.3,174.4,64.3z"/>
				<path class="st2" d="M191,71.3V43.3h6.7l12.3,17h-3.1v-17h7.9v27.9h-6.7l-12.3-17h3.1v17H191z"/>
				<path class="st2" d="M226.9,71.3h-8.2V43.3h19.6v7.1h-11.5V71.3z M226.3,55.2H237v7.1h-10.6V55.2z"/>
				<path class="st2" d="M249,64.2h12.1v7.1H241V43.3h19.7v7.1H249V64.2z M248.4,53.7h10.8v6.8h-10.8V53.7z"/>
				<path class="st2" d="M264.2,71.3V43.3h11.6c2.3,0,4.2,0.4,5.9,1.3c1.6,0.9,2.9,2.1,3.8,3.6c0.9,1.6,1.3,3.4,1.3,5.6
					s-0.4,4-1.3,5.6c-0.9,1.6-2.2,2.7-3.8,3.6c-1.6,0.8-3.6,1.2-5.9,1.2h-7.1l3.6-3.9v10.9H264.2z M272.4,61.4l-3.6-4.3h6.6
					c1.1,0,2-0.3,2.5-0.9c0.5-0.6,0.8-1.4,0.8-2.4c0-1-0.3-1.8-0.8-2.4c-0.5-0.6-1.4-0.9-2.5-0.9h-6.6l3.6-4.3V61.4z M278.7,71.3
					l-5.9-10.2h8.6l6,10.2H278.7z"/>
				<path class="st2" d="M298,64.2h12.1v7.1H290V43.3h19.7v7.1H298V64.2z M297.4,53.7h10.8v6.8h-10.8V53.7z"/>
				<path class="st2" d="M313.2,71.3V43.3h6.7l12.3,17h-3.1v-17h7.9v27.9h-6.7l-12.3-17h3.1v17H313.2z"/>
				<path class="st2" d="M353.5,71.9c-1.9,0-3.7-0.4-5.4-1.1c-1.6-0.7-3.1-1.7-4.3-3c-1.2-1.3-2.1-2.8-2.8-4.6c-0.7-1.8-1-3.7-1-5.9
					s0.3-4.1,1-5.9s1.6-3.3,2.8-4.6c1.2-1.3,2.6-2.3,4.3-3c1.6-0.7,3.4-1.1,5.4-1.1c2.4,0,4.5,0.5,6.3,1.4s3.3,2.3,4.5,4.1l-5.1,5.3
					c-0.7-1-1.5-1.8-2.4-2.4c-0.9-0.6-1.8-0.9-2.9-0.9c-0.9,0-1.6,0.2-2.3,0.5c-0.7,0.3-1.3,0.8-1.8,1.4c-0.5,0.6-0.9,1.3-1.2,2.2
					c-0.3,0.9-0.4,1.8-0.4,2.9s0.1,2,0.4,2.9c0.3,0.9,0.7,1.6,1.2,2.2c0.5,0.6,1.1,1.1,1.8,1.4c0.7,0.3,1.5,0.5,2.3,0.5
					c1.1,0,2.1-0.3,2.9-0.9c0.9-0.6,1.7-1.4,2.4-2.4l5.1,5.3c-1.2,1.8-2.7,3.2-4.5,4.1S355.8,71.9,353.5,71.9z"/>
				<path class="st2" d="M374.7,64.2h12.1v7.1h-20.1V43.3h19.7v7.1h-11.6V64.2z M374.1,53.7h10.8v6.8h-10.8V53.7z"/>
			</g>
			<path class="st0" d="M381.3,75.4H141c-3,0-5.5,2.4-5.5,5.5v18c0,3,2.4,5.5,5.5,5.5h240.3c3,0,5.5-2.4,5.5-5.5v-18
				C386.8,77.9,384.3,75.4,381.3,75.4z"/>
			<g>
				<path class="st3" d="M169.5,97.1V84.8l1.7,1.9h-3.8v-3.5h6.1v13.9H169.5z"/>
				<path class="st3" d="M182.2,93.1v-3.4h5.2v3.4H182.2z"/>
				<path class="st3" d="M195.5,94.7v-3l5.1-8.6h4.2l-4.9,8.6l-1.9-0.7h9.3v3.6H195.5z M201.7,97.1v-2.4l0.1-3.6V89h3.8v8.2H201.7z"
					/>
				<path class="st3" d="M221.6,97.4c-1,0-1.9-0.2-2.7-0.5c-0.8-0.4-1.6-0.9-2.2-1.5s-1.1-1.4-1.4-2.3c-0.3-0.9-0.5-1.9-0.5-2.9
					c0-1.1,0.2-2,0.5-2.9c0.3-0.9,0.8-1.7,1.4-2.3s1.3-1.2,2.2-1.5c0.8-0.4,1.7-0.5,2.7-0.5c1,0,1.9,0.2,2.7,0.5
					c0.8,0.4,1.5,0.9,2.2,1.5s1.1,1.4,1.4,2.3s0.5,1.9,0.5,2.9c0,1-0.2,2-0.5,2.9c-0.3,0.9-0.8,1.7-1.4,2.3s-1.3,1.2-2.2,1.5
					C223.5,97.3,222.6,97.4,221.6,97.4z M221.6,93.6c0.4,0,0.7-0.1,1.1-0.2c0.3-0.2,0.6-0.4,0.9-0.7c0.2-0.3,0.4-0.7,0.6-1.1
					s0.2-0.9,0.2-1.5c0-0.5-0.1-1-0.2-1.5c-0.1-0.4-0.3-0.8-0.6-1.1c-0.2-0.3-0.5-0.5-0.9-0.7c-0.3-0.2-0.7-0.2-1.1-0.2
					c-0.4,0-0.7,0.1-1.1,0.2c-0.3,0.2-0.6,0.4-0.9,0.7s-0.4,0.7-0.6,1.1c-0.1,0.4-0.2,0.9-0.2,1.5c0,0.5,0.1,1,0.2,1.5
					c0.1,0.4,0.3,0.8,0.6,1.1c0.2,0.3,0.5,0.5,0.9,0.7C220.8,93.6,221.2,93.6,221.6,93.6z"/>
				<path class="st3" d="M235.7,97.3c-1.1,0-2-0.2-2.9-0.7c-0.8-0.5-1.5-1.1-2-2c-0.5-0.9-0.7-1.8-0.7-2.9s0.2-2.1,0.7-2.9
					c0.5-0.8,1.1-1.5,2-2c0.8-0.5,1.8-0.7,2.9-0.7c1.2,0,2.1,0.3,2.9,0.9c0.8,0.6,1.4,1.4,1.7,2.4l-3,1.7c-0.2-0.5-0.4-0.9-0.7-1.1
					c-0.3-0.2-0.6-0.3-0.9-0.3c-0.3,0-0.6,0.1-0.8,0.2c-0.2,0.2-0.4,0.4-0.6,0.7c-0.1,0.3-0.2,0.7-0.2,1.2s0.1,0.9,0.2,1.2
					c0.1,0.3,0.3,0.6,0.6,0.7c0.2,0.2,0.5,0.2,0.8,0.2c0.3,0,0.6-0.1,0.9-0.3c0.3-0.2,0.5-0.6,0.7-1.1l3,1.7c-0.3,1-0.9,1.8-1.7,2.4
					C237.8,97,236.8,97.3,235.7,97.3z"/>
				<path class="st3" d="M241.4,90.1v-3.3h7.1v3.3H241.4z M246.8,97.3c-1.3,0-2.3-0.4-3-1.1s-1.1-1.8-1.1-3.3v-9.1h3.9v9.1
					c0,0.3,0.1,0.6,0.2,0.8c0.2,0.2,0.3,0.3,0.6,0.3c0.3,0,0.6-0.1,0.9-0.3l0.9,3.1c-0.3,0.2-0.7,0.3-1.1,0.4
					C247.7,97.3,247.3,97.3,246.8,97.3z"/>
				<path class="st3" d="M255.8,97.3c-1.1,0-2-0.2-2.8-0.7c-0.8-0.5-1.5-1.2-1.9-2c-0.5-0.8-0.7-1.8-0.7-2.9s0.2-2.1,0.7-2.9
					s1.1-1.5,1.9-2c0.8-0.5,1.8-0.7,2.8-0.7s2,0.2,2.8,0.7c0.8,0.5,1.5,1.1,1.9,2s0.7,1.8,0.7,2.9s-0.2,2.1-0.7,2.9
					c-0.5,0.8-1.1,1.5-1.9,2S256.8,97.3,255.8,97.3z M255.8,93.8c0.3,0,0.5-0.1,0.8-0.2c0.2-0.2,0.4-0.4,0.6-0.7s0.2-0.7,0.2-1.2
					c0-0.5-0.1-0.9-0.2-1.2c-0.1-0.3-0.3-0.5-0.6-0.7c-0.2-0.2-0.5-0.2-0.8-0.2s-0.5,0.1-0.8,0.2c-0.2,0.2-0.4,0.4-0.6,0.7
					c-0.1,0.3-0.2,0.7-0.2,1.2c0,0.5,0.1,0.9,0.2,1.2s0.3,0.6,0.6,0.7C255.2,93.7,255.5,93.8,255.8,93.8z"/>
				<path class="st3" d="M263.3,97.1V82.3h3.9v5.3l-0.2,4l0,4v1.5H263.3z M269.6,97.3c-0.9,0-1.6-0.2-2.1-0.6
					c-0.5-0.4-0.9-1-1.1-1.9c-0.2-0.8-0.4-1.9-0.4-3.2c0-1.3,0.1-2.3,0.4-3.2c0.3-0.8,0.6-1.4,1.2-1.9c0.5-0.4,1.2-0.6,2-0.6
					c0.8,0,1.6,0.2,2.3,0.7c0.7,0.5,1.2,1.1,1.7,1.9s0.6,1.8,0.6,3s-0.2,2.2-0.6,3c-0.4,0.8-1,1.5-1.7,2
					C271.2,97.1,270.5,97.3,269.6,97.3z M268.7,93.8c0.3,0,0.5-0.1,0.8-0.2c0.2-0.2,0.4-0.4,0.6-0.7c0.1-0.3,0.2-0.7,0.2-1.2
					c0-0.5-0.1-0.9-0.2-1.2c-0.1-0.3-0.3-0.5-0.6-0.7c-0.2-0.2-0.5-0.2-0.8-0.2c-0.3,0-0.5,0.1-0.8,0.2c-0.2,0.2-0.4,0.4-0.6,0.7
					c-0.1,0.3-0.2,0.7-0.2,1.2c0,0.5,0.1,0.9,0.2,1.2c0.1,0.3,0.3,0.6,0.6,0.7C268.2,93.7,268.4,93.8,268.7,93.8z"/>
				<path class="st3" d="M281.5,97.3c-1.2,0-2.2-0.2-3-0.7c-0.9-0.5-1.5-1.2-2-2s-0.7-1.8-0.7-2.9c0-1.1,0.2-2.1,0.7-2.9
					s1.1-1.5,1.9-2c0.8-0.5,1.7-0.7,2.7-0.7c0.9,0,1.8,0.2,2.6,0.6c0.8,0.4,1.4,1.1,1.9,1.9c0.5,0.8,0.7,1.9,0.7,3.1
					c0,0.2,0,0.3,0,0.5c0,0.2,0,0.4,0,0.5H279v-2.2h5.2l-1.5,0.6c0-0.4-0.1-0.8-0.2-1.1s-0.3-0.5-0.5-0.7c-0.2-0.2-0.5-0.2-0.8-0.2
					c-0.3,0-0.6,0.1-0.8,0.2c-0.2,0.2-0.4,0.4-0.5,0.7s-0.2,0.7-0.2,1.1v0.7c0,0.5,0.1,0.9,0.2,1.2s0.4,0.6,0.7,0.7
					c0.3,0.2,0.7,0.2,1.1,0.2c0.4,0,0.8-0.1,1.1-0.2c0.3-0.1,0.6-0.3,0.9-0.6l2,2.4c-0.5,0.6-1,1-1.7,1.3S282.4,97.3,281.5,97.3z"/>
				<path class="st3" d="M288.4,97.1V86.2h3.7v3.3l-0.6-0.9c0.3-0.8,0.7-1.5,1.4-1.9c0.6-0.4,1.4-0.6,2.3-0.6v4
					c-0.2,0-0.3,0-0.5-0.1c-0.1,0-0.3,0-0.4,0c-0.6,0-1.1,0.2-1.4,0.5c-0.4,0.4-0.6,1-0.6,1.8v4.8H288.4z"/>
				<path class="st3" d="M296.7,100.3l1.4-5.6l0.6,2.5c-0.7,0-1.2-0.2-1.6-0.7c-0.4-0.4-0.6-1.1-0.6-1.8c0-0.8,0.2-1.4,0.6-1.9
					c0.4-0.5,1-0.7,1.6-0.7c0.7,0,1.2,0.2,1.6,0.7c0.4,0.5,0.6,1.1,0.6,1.9c0,0.2,0,0.4,0,0.6c0,0.2-0.1,0.5-0.2,0.8
					s-0.2,0.7-0.4,1.2l-1.2,3H296.7z"/>
				<path class="st3" d="M308.7,97.1v-2.9l4.4-4.7c0.3-0.3,0.5-0.6,0.6-0.8c0.1-0.2,0.2-0.4,0.3-0.6c0-0.2,0.1-0.3,0.1-0.5
					c0-0.3-0.1-0.6-0.3-0.8c-0.2-0.2-0.5-0.3-0.9-0.3c-0.4,0-0.7,0.1-1,0.3c-0.3,0.2-0.6,0.5-0.8,1l-3.1-1.8c0.4-1,1.1-1.7,2-2.3
					c0.9-0.6,2-0.9,3.3-0.9c1,0,1.8,0.2,2.5,0.5c0.7,0.4,1.3,0.9,1.7,1.5c0.4,0.7,0.6,1.4,0.6,2.3c0,0.5,0,0.9-0.1,1.4
					c-0.1,0.5-0.3,0.9-0.6,1.4c-0.3,0.5-0.7,1.1-1.3,1.7l-3.3,3.4l-0.6-1.6h6.3v3.6H308.7z"/>
				<path class="st3" d="M325.5,97.4c-1.1,0-2-0.3-2.8-0.9c-0.8-0.6-1.5-1.4-1.9-2.5c-0.5-1.1-0.7-2.4-0.7-3.9s0.2-2.9,0.7-3.9
					c0.5-1.1,1.1-1.9,1.9-2.5c0.8-0.6,1.8-0.9,2.8-0.9s2,0.3,2.8,0.9c0.8,0.6,1.5,1.4,1.9,2.5s0.7,2.4,0.7,3.9s-0.2,2.9-0.7,3.9
					c-0.5,1.1-1.1,1.9-1.9,2.5C327.6,97.1,326.6,97.4,325.5,97.4z M325.5,93.7c0.3,0,0.5-0.1,0.7-0.3c0.2-0.2,0.4-0.6,0.5-1.1
					s0.2-1.2,0.2-2.1c0-0.9-0.1-1.6-0.2-2.1c-0.1-0.5-0.3-0.9-0.5-1.1c-0.2-0.2-0.4-0.3-0.7-0.3c-0.3,0-0.5,0.1-0.7,0.3
					c-0.2,0.2-0.4,0.6-0.5,1.1c-0.1,0.5-0.2,1.2-0.2,2.1c0,0.9,0.1,1.6,0.2,2.1c0.1,0.5,0.3,0.9,0.5,1.1
					C325,93.6,325.3,93.7,325.5,93.7z"/>
				<path class="st3" d="M332.7,97.1v-2.9l4.4-4.7c0.3-0.3,0.5-0.6,0.6-0.8c0.1-0.2,0.2-0.4,0.3-0.6c0-0.2,0.1-0.3,0.1-0.5
					c0-0.3-0.1-0.6-0.3-0.8c-0.2-0.2-0.5-0.3-0.9-0.3c-0.4,0-0.7,0.1-1,0.3c-0.3,0.2-0.6,0.5-0.8,1l-3.1-1.8c0.4-1,1.1-1.7,2-2.3
					c0.9-0.6,2-0.9,3.3-0.9c1,0,1.8,0.2,2.5,0.5c0.7,0.4,1.3,0.9,1.7,1.5c0.4,0.7,0.6,1.4,0.6,2.3c0,0.5,0,0.9-0.1,1.4
					c-0.1,0.5-0.3,0.9-0.6,1.4c-0.3,0.5-0.7,1.1-1.3,1.7l-3.3,3.4l-0.6-1.6h6.3v3.6H332.7z"/>
				<path class="st3" d="M343.9,94.7v-3l5.1-8.6h4.2l-4.9,8.6l-1.9-0.7h9.3v3.6H343.9z M350.2,97.1v-2.4l0.1-3.6V89h3.8v8.2H350.2z"
					/>
			</g>
		</g>
	</g>
</g>
</svg>
