<?xml version="1.0" encoding="utf-8"?>
<!-- Generator: Adobe Illustrator 28.0.0, SVG Export Plug-In . SVG Version: 6.00 Build 0)  -->
<svg version="1.1" id="Layer_1" xmlns="http://www.w3.org/2000/svg" x="0px" y="0px"
	 viewBox="0 0 394.6 112.3" style="enable-background:new 0 0 394.6 112.3;" xml:space="preserve">
<style type="text/css">
	.st0{fill:#FFFFFF;}
	.st1{opacity:0.8;}
	.st2{fill:#0784C7;}
</style>
<g>
	<g>
		<g>
			<rect x="119.2" y="9.6" class="st0" width="2.1" height="94.8"/>
		</g>
		<g>
			<g>
				<g>
					<g class="st1">
						<path class="st0" d="M69,53.8l-1.5,4h2.9L69,53.8z M69,53.8l-1.5,4h2.9L69,53.8z M69,53.8l-1.5,4h2.9L69,53.8z M69,53.8
							l-1.5,4h2.9L69,53.8z M69,53.8l-1.5,4h2.9L69,53.8z M69,53.8l-1.5,4h2.9L69,53.8z M69,53.8l-1.5,4h2.9L69,53.8z M69,53.8
							l-1.5,4h2.9L69,53.8z M69,53.8l-1.5,4h2.9L69,53.8z M69,53.8l-1.5,4h2.9L69,53.8z M69,53.8l-1.5,4h2.9L69,53.8z M69,53.8
							l-1.5,4h2.9L69,53.8z M69,53.8l-1.5,4h2.9L69,53.8z M69,53.8l-1.5,4h2.9L69,53.8z M69,53.8l-1.5,4h2.9L69,53.8z M69,53.8
							l-1.5,4h2.9L69,53.8z M84.3,64.4l-0.6-1.8l-9-27.8l-0.6-1.8l-0.2-0.5H39.9l-0.2,0.6l-0.6,1.7l-9,27.8l-0.6,1.7L29.3,65
							l0.4,0.3l1.5,1.1l23.7,17.2l1.5,1.1l0.5,0.3l0.5-0.3l1.5-1.1l23.7-17.2l1.5-1.1l0.4-0.3L84.3,64.4z M55.5,61.3
							c-0.7-0.6-1.2-1.5-1.3-2.8l2.1-0.2c0.1,0.7,0.4,1.2,0.8,1.6c0.4,0.3,0.9,0.5,1.6,0.5c0.7,0,1.2-0.2,1.6-0.5
							c0.4-0.3,0.5-0.6,0.5-1c0-0.2-0.1-0.5-0.2-0.7c-0.1-0.2-0.4-0.3-0.8-0.5c-0.2-0.1-0.8-0.2-1.7-0.5c-1.2-0.3-2-0.7-2.4-1.1
							c-0.7-0.6-1-1.3-1-2.2c0-0.6,0.2-1.1,0.5-1.5c0.3-0.5,0.8-0.8,1.3-1.1c0.6-0.2,1.3-0.4,2.1-0.4c1.3,0,2.4,0.3,3,0.9
							c0.7,0.6,1,1.4,1.1,2.4l-2.2,0.1c-0.1-0.5-0.3-0.9-0.6-1.2c-0.3-0.2-0.8-0.4-1.4-0.4c-0.6,0-1.1,0.1-1.5,0.4
							c-0.2,0.2-0.3,0.4-0.3,0.7c0,0.3,0.1,0.5,0.3,0.7c0.3,0.2,0.9,0.5,2,0.7c1,0.2,1.8,0.5,2.3,0.8c0.5,0.3,0.9,0.6,1.2,1.1
							c0.3,0.5,0.4,1,0.4,1.7c0,0.6-0.2,1.2-0.5,1.7c-0.3,0.5-0.8,0.9-1.5,1.2s-1.4,0.4-2.3,0.4C57.3,62.2,56.2,61.9,55.5,61.3z
							 M41.7,51.3l1.6,7.4l2-7.4h2.6l1.9,7.5l1.7-7.5h2.2L51,62h-2.3l-2.1-8l-2.1,8h-2.4l-2.6-10.8H41.7z M74.5,62h-2.4l-0.9-2.4
							h-4.3L66,62h-2.3l4.2-10.8h2.3L74.5,62z M67.5,57.8h2.9l-1.5-4L67.5,57.8z M69,53.8l-1.5,4h2.9L69,53.8z M69,53.8l-1.5,4h2.9
							L69,53.8z M69,53.8l-1.5,4h2.9L69,53.8z M69,53.8l-1.5,4h2.9L69,53.8z M69,53.8l-1.5,4h2.9L69,53.8z M69,53.8l-1.5,4h2.9
							L69,53.8z M69,53.8l-1.5,4h2.9L69,53.8z M69,53.8l-1.5,4h2.9L69,53.8z M69,53.8l-1.5,4h2.9L69,53.8z M69,53.8l-1.5,4h2.9
							L69,53.8z M69,53.8l-1.5,4h2.9L69,53.8z M69,53.8l-1.5,4h2.9L69,53.8z M69,53.8l-1.5,4h2.9L69,53.8z M69,53.8l-1.5,4h2.9
							L69,53.8z M69,53.8l-1.5,4h2.9L69,53.8z M69,53.8l-1.5,4h2.9L69,53.8z"/>
					</g>
				</g>
				<g>
					<path class="st0" d="M99.2,69.8l0-0.4l-0.4-23.7v-0.3l0-1.5v-0.2l0,0l-0.1-0.2l-0.8-1.3l-0.3-0.4L85.7,21.9l-0.3-0.4l-1-1.7
						l0,0l-0.1,0L82,19.1l-0.6-0.2l-21.7-6.2l-0.8-0.2l-2.2-0.6l-0.2-0.1l0,0l0,0l-0.2,0.1l-2.1,0.6l-0.6,0.2l-18.7,5.7L33,18.9
						l-1.6,0.5h0l-0.1,0l0,0.1L30.3,21l-0.4,0.6L18.1,40.8l0,0.1l-1.1,1.8l-0.1,0.1l0,0.1l0,0l0,0.2l-0.1,1.6l0,0.7l-1.3,22.5l0,0.5
						l-0.1,1.9v0.1l0,0.1l1.5,1.9l0.1,0.1l12.5,16.2l0.5,0.6l0.9,1.2l0.1,0.2l0,0l0,0l0.2,0.1l1.4,0.6l0.4,0.2l21.3,9.8l0.6,0.3
						l1.6,0.7l0.1,0l0.1,0l0.1,0l2-0.8l0.4-0.1l22.1-8.6l0.6-0.2l1.4-0.5L83,92l0,0l0,0l0.1-0.2l0.9-1.2l0.3-0.4l13-16.4l0.6-0.8
						l1-1.3l0,0l0.1-0.1v-0.1L99.2,69.8z M83.5,90.1l-0.2,0.2l-0.8,1l-1.1,0.4l-0.3,0.1l-22.6,8.8l-2,0.8l-2-0.9l-21.7-9.9l-0.3-0.1
						L31.3,90l-0.8-1l-0.2-0.2l-13-16.9l-1.1-1.4l-0.2-0.3l0-0.5l0.1-1.7l1.3-22.5l0.1-0.9l0.1-1.4l0.7-1.1l0.5-0.8L31,21.4l0.5-0.8
						l0.3-0.4l0.4-0.1l1-0.3l21.2-6.4l0.9-0.3l1.2-0.4l1.2,0.3l0.9,0.3l23,6.6l1.6,0.5l0.5,0.1l0.2,0.4l0.9,1.5l12.2,20.3l0.1,0.2
						l0.6,1.1l0,1.3l0,0.3l0.4,24.3l0,1l0,0.5l-0.2,0.3l-0.7,0.9L83.5,90.1z"/>
				</g>
				<g>
					<path class="st0" d="M98.7,43.6L98.7,43.6l-0.9-0.4l-0.5-0.2l-0.2-0.1l-20.8-9.6l-1.7-0.8l-0.3-0.1l-0.1,0l-0.1-0.1l-0.2-0.2
						l-1.2-1.4L58.4,13.7L57.8,13l-0.3-0.3l-0.7-0.8l0-0.1l-0.2-0.2l-0.2,0.2l0,0.1l-0.7,0.8L55.3,13l-0.6,0.8L41,30.5l-1.1,1.4
						l-0.2,0.3l-0.1,0.1l-0.1,0l-0.3,0.1l-1.7,0.8l-18.3,8.5l-0.9,0.4l-0.5,0.3l-0.8,0.4l-0.1,0l-0.2,0.1l0.1,0.2l0.1,0.1l0.4,0.7
						l0.4,0.7l0.4,0.8l9.8,17.8l0.9,1.7l0.2,0.3l0,0.1l0,0.1l0,0.4l0.1,1.8l1.5,21.4l0,0.2l0,0.6l0.1,1v0.1l0,0.3l0.2,0l0.1,0
						l0.9-0.2l0.6-0.1l0.3-0.1l21.9-4.5l2.1-0.4l0.1,0l0.1,0l2.1,0.5l22,5.7l0.3,0.1l0.5,0.1l0.9,0.2l0.1,0l0.3,0.1l0-0.3v-0.1
						l0.1-0.9l0-0.6l0-0.3l1.4-22.7v0l0.1-1.8l0-0.4l0-0.1l0-0.1l0.2-0.2l1-1.6l11.7-17.8l0.2-0.2l0.3-0.5l0.5-0.7l0.1-0.1l0.1-0.2
						L98.7,43.6z M85.4,62.7L84.6,64l-0.3,0.5L84,64.8l0,0.5l0,0.5l-0.1,1.5L82.5,90l-0.1,1.1l-1.1-0.3l-22-5.7l-1.4-0.4l-0.5-0.1
						L57,84.6l-0.1,0l-0.5,0.1l-0.6,0.1l-1.4,0.3l-21.9,4.5l-1.1,0.2l-0.1-1.2l-1.5-21.4l-0.1-1.5l0-0.6l0-0.3v-0.1l-0.2-0.4
						l-0.3-0.5l-0.7-1.2l-9.8-17.8l-0.9-1.7l1.7-0.8L37.9,34l1.3-0.6l0.5-0.2L40,33l0.1,0l0.3-0.3l0.3-0.4l0.9-1.1l13.7-16.7
						l1.2-1.5l1.2,1.4L72.1,31l0.9,1.1l0.4,0.4l0.2,0.3l0.1,0.1l0.4,0.2l0.5,0.2l1.3,0.6l20.8,9.6l1,0.5l-0.6,1L85.4,62.7z"/>
				</g>
				<g>
					<path class="st0" d="M104.4,55.6l-5-10.4l-0.6-1.3l-0.1-0.1l0,0v0l0-0.1l-0.2-1.4v0l-2-12.8l-0.3-1.8l-1.5-1l-8.4-5.5v0
						l-1.9-1.2l-0.1,0l0,0l-2-1.2l-8.9-5.6L71.9,12l-1.8,0l-11.2-0.1h0l-2.2,0h-0.4l-2.2,0l-8.4,0.1L44,12l-1.5,0.9l-9.8,5.7
						l-1.3,0.8h0l-0.1,0.1l-0.1,0l-1.2,1l-9,7.1l-1.4,1.1l-0.3,1.8v0l-2,10.2l-0.4,2.1l0,0.1l0,0L16.7,43l-1.1,1.8L10,54.2l-1,1.6
						l0.7,1.7l4.5,10.8l0.9,2.1l0,0.1l0,0.1l0.7,2.2l3.1,9.2l0.6,1.7l1.5,1l8.3,5.3l1.2,0.8l0.1,0.1l0,0l0,0l0.1,0.1l0.9,1l8.7,9.8
						l1.1,1.2l0.1,0.1l1.9-0.1l10.4-0.5l2.3-0.1h0.1l2.3,0.1l10.4,0.5L71,103l1.3-1.2l9.5-8.7l1-1L83,92l0,0l0,0l0.1-0.1l1.2-0.7
						l8-4.6l1.6-0.9l0.6-1.7l4-10.9l0.5-1.5l0,0l0-0.1l0.6-1.4l4.7-11.2l0.7-1.7L104.4,55.6z M99.2,69.4l-0.2,0.4l-0.5,1.1l-0.2,0.4
						l-0.1,0.4l-0.4,1.2v0l-0.3,0.9l-3.7,10l-0.5,1.4l-1.3,0.7l-7.5,4.3L84,90.5l-0.8,0.4l-0.7,0.4L82,91.9l-0.6,0.6l-0.5,0.4
						l-9.1,8.3l-1.1,1l-1.5-0.1l-10.4-0.5l-0.4,0l-2-0.1l-1.8,0.1l-0.6,0l-10.4,0.5l-1.4,0.1l-1-1.1l-8.5-9.5l-0.3-0.3l-0.6-0.7
						l-0.5-0.5l-0.8-0.5l-0.7-0.4l-0.6-0.4l-7.7-4.9L20.3,83l-0.5-1.4l-3-9.1l0-0.1l-0.6-1.9L16,70.1l-0.2-0.4l-0.5-1.3l-0.2-0.5
						l-4.5-10.8L10,55.8l0.7-1.2l5.6-9.3l0.3-0.6l0.5-0.8l0.4-0.6l0.2-0.9l0.3-1.5l0-0.1l2-10.2l0.3-1.5l1.2-0.9l8.4-6.6l0.6-0.5
						l0.9-0.7l0.3-0.2l0.4-0.2h0l1-0.6l1.7-1l8.1-4.7h0l1.3-0.8l1.5,0l7.7-0.1l0.7,0l1.4,0l0.9,0l0.9,0l1.4,0l0.8,0l10.5,0.1l1.5,0
						l1.3,0.8l8.4,5.3l0.5,0.3l1.6,1l0.4,0.3l0.3,0.2l1.2,0.8l0.4,0.3l8.4,5.5l1.2,0.8l0.2,1.4l1.9,12.3l0.1,0.5l0.1,0.8l0.1,0.8
						l0.4,0.8l0.4,0.8l0.1,0.2l4.8,10.2l0.6,1.3l-0.6,1.3L99.2,69.4z"/>
				</g>
				<g>
					
						<rect x="15.1" y="67.2" transform="matrix(0.9329 -0.36 0.36 0.9329 -22.8374 12.6271)" class="st0" width="14.7" height="0.9"/>
				</g>
				<g>
					
						<rect x="91.2" y="60.3" transform="matrix(0.4126 -0.9109 0.9109 0.4126 -8.3206 123.5514)" class="st0" width="0.9" height="15.8"/>
				</g>
				<g>
					
						<rect x="71" y="25.9" transform="matrix(0.6348 -0.7727 0.7727 0.6348 8.4988 70.6832)" class="st0" width="16.1" height="0.9"/>
				</g>
				<g>
					
						<rect x="35.3" y="18.5" transform="matrix(0.8374 -0.5466 0.5466 0.8374 -8.5075 23.7631)" class="st0" width="0.9" height="15.3"/>
				</g>
				<g>
					<path class="st0" d="M84.9,65l-0.1-0.4v0L84.6,64l-0.5-1.4l-9.1-27.9l-0.4-1.3l-0.2-0.7l-0.1-0.4l0-0.1H39.5l0,0.1l-0.1,0.4
						l-0.2,0.7l-0.4,1.3l-9.1,27.9l-0.4,1.3L29,64.6L28.9,65l0,0.1l0.1,0.1l0.3,0.2l0.6,0.4l1.2,0.9l23.7,17.2l1.1,0.8l0.9,0.7
						l0.1,0.1l0.1-0.1l0.9-0.7l1.2-0.9l23.7-17.2l1.2-0.9l0.5-0.4l0.4-0.3l0.1-0.1L84.9,65z M56.9,84.5l-1.7-1.2L31.5,66l-1.7-1.2
						l0.6-2L39.5,35l0.6-2h33.4l0.6,2l9.1,27.9l0.6,2L82.3,66L58.5,83.3L56.9,84.5z"/>
				</g>
				<g>
					<circle class="st0" cx="56.9" cy="85" r="2.4"/>
				</g>
				<g>
					<circle class="st0" cx="29.3" cy="65" r="2.4"/>
				</g>
				<g>
					<circle class="st0" cx="84.5" cy="65" r="2.4"/>
				</g>
				<g>
					<circle class="st0" cx="73.9" cy="32.6" r="2.4"/>
				</g>
				<g>
					<circle class="st0" cx="39.9" cy="32.6" r="2.4"/>
				</g>
				<g>
					<circle class="st0" cx="44.2" cy="12.4" r="1.7"/>
				</g>
				<g>
					<circle class="st0" cx="31.5" cy="19.8" r="1.7"/>
				</g>
				<g>
					<circle class="st0" cx="20" cy="28.9" r="1.7"/>
				</g>
				<g>
					<circle class="st0" cx="9.5" cy="55.8" r="1.7"/>
				</g>
				<g>
					<circle class="st0" cx="20" cy="83.3" r="1.7"/>
				</g>
				<g>
					<circle class="st0" cx="31.1" cy="90.4" r="1.7"/>
				</g>
				<g>
					<circle class="st0" cx="42" cy="102.6" r="1.7"/>
				</g>
				<g>
					<circle class="st0" cx="70.9" cy="102.6" r="1.7"/>
				</g>
				<g>
					<circle class="st0" cx="82.8" cy="91.7" r="1.7"/>
				</g>
				<g>
					<circle class="st0" cx="93.7" cy="85.5" r="1.7"/>
				</g>
				<g>
					<circle class="st0" cx="98.8" cy="71.5" r="1.7"/>
				</g>
				<g>
					<circle class="st0" cx="104.7" cy="57.3" r="1.7"/>
				</g>
				<g>
					<circle class="st0" cx="98.4" cy="43.9" r="1.7"/>
				</g>
				<g>
					<circle class="st0" cx="95.9" cy="27.9" r="1.7"/>
				</g>
				<g>
					<circle class="st0" cx="17.2" cy="43" r="2.4"/>
				</g>
				<g>
					<circle class="st0" cx="15.6" cy="70.3" r="2.4"/>
				</g>
				<g>
					<circle class="st0" cx="56.4" cy="102" r="2.4"/>
				</g>
				<g>
					<circle class="st0" cx="84.1" cy="20.1" r="2.4"/>
				</g>
				<g>
					<circle class="st0" cx="56.6" cy="12.2" r="2.4"/>
				</g>
				<g>
					<circle class="st0" cx="71.8" cy="12.4" r="1.7"/>
				</g>
			</g>
		</g>
		<g>
			<g>
				<path class="st2" d="M152.5,23.4c-0.9-0.9-2-1.5-3.4-1.9l4.5-5.2v-5.8h-18v7.1h8.7l-3.6,4.2v5.8h3.2c1,0,1.8,0.2,2.2,0.5
					c0.4,0.3,0.7,0.8,0.7,1.4c0,0.7-0.3,1.3-0.9,1.6c-0.6,0.4-1.3,0.5-2.3,0.5c-1,0-2.1-0.2-3.2-0.5c-1.1-0.3-2.2-0.8-3.3-1.5
					l-2.8,6.9c1.3,0.8,2.8,1.5,4.5,1.9c1.7,0.4,3.4,0.6,5,0.6c2.6,0,4.7-0.5,6.3-1.4c1.6-0.9,2.8-2.1,3.6-3.6c0.8-1.5,1.2-3,1.2-4.6
					C154.9,27,154.1,25,152.5,23.4z"/>
				<path class="st2" d="M162,12.9c-0.4,0.2-0.7,0.5-0.9,0.9v-1.4h-4.3v12.7h4.6v-5.6c0-1,0.2-1.7,0.6-2.1c0.4-0.4,1-0.6,1.7-0.6
					c0.2,0,0.3,0,0.5,0c0.1,0,0.3,0,0.5,0.1v-4.6C163.6,12.2,162.7,12.4,162,12.9z"/>
				<path class="st2" d="M174.4,15.1c-0.2-0.7-0.5-1.3-1-1.8c-0.1-0.2-0.3-0.3-0.4-0.4c-0.6-0.5-1.4-0.7-2.4-0.7
					c-1,0-1.8,0.3-2.7,0.8c-0.8,0.5-1.5,1.3-1.9,2.3c-0.5,1-0.7,2.2-0.7,3.5c0,1.4,0.2,2.5,0.7,3.5c0.5,1,1.1,1.7,1.9,2.3
					c0.8,0.5,1.7,0.8,2.7,0.8c1,0,1.8-0.2,2.5-0.7c0.2-0.2,0.4-0.3,0.6-0.6c0.3-0.4,0.6-1,0.8-1.6c0.3-1,0.4-2.2,0.4-3.7
					S174.7,16,174.4,15.1z M173.3,20.2c-0.2,0.4-0.4,0.7-0.7,0.9c-0.3,0.2-0.6,0.3-0.9,0.3c-0.3,0-0.6-0.1-0.9-0.3
					c-0.3-0.2-0.5-0.5-0.6-0.9c-0.2-0.4-0.2-0.8-0.2-1.4c0-0.6,0.1-1,0.2-1.4c0.2-0.4,0.4-0.6,0.6-0.8c0.3-0.2,0.6-0.3,0.9-0.3
					c0.3,0,0.6,0.1,0.9,0.3c0.3,0.2,0.5,0.5,0.7,0.8c0.2,0.4,0.2,0.8,0.2,1.4C173.5,19.3,173.5,19.8,173.3,20.2z M173.5,7.9v6.2
					l0.2,4.6l0,4.7v1.7h4.3V7.9H173.5z"/>
				<path class="st0" d="M199.4,31.3V17.6H211v-7.1h-19.6v27.9h20.1v-7.1H199.4z M198.8,20.9v6.8h10.8v-6.8H198.8z"/>
				<path class="st0" d="M222.7,31.1V10.5h-8.2v27.9h19.1v-7.3H222.7z"/>
				<path class="st0" d="M235.9,10.5v27.9h8.2V10.5H235.9z"/>
				<path class="st0" d="M246.2,10.5v7.3h7.1v20.6h8.1V17.8h7.1v-7.3H246.2z"/>
				<path class="st0" d="M278.6,31.3V17.6h11.6v-7.1h-19.7v27.9h20.1v-7.1H278.6z M278,20.9v6.8h10.8v-6.8H278z"/>
				<path class="st0" d="M152.3,63.4c-0.9,0.6-1.8,0.9-2.9,0.9c-0.9,0-1.6-0.2-2.3-0.5c-0.7-0.3-1.3-0.8-1.8-1.4
					c-0.5-0.6-0.9-1.3-1.2-2.2c-0.3-0.9-0.4-1.8-0.4-2.9s0.1-2,0.4-2.9c0.3-0.9,0.7-1.6,1.2-2.2c0.5-0.6,1.1-1.1,1.8-1.4
					s1.5-0.5,2.3-0.5c1.1,0,2.1,0.3,2.9,0.9s1.7,1.4,2.4,2.4l5.1-5.3c-1.2-1.8-2.7-3.2-4.5-4.1c-1.8-1-3.9-1.4-6.3-1.4
					c-1.9,0-3.7,0.4-5.4,1.1c-1.6,0.7-3.1,1.7-4.3,3c-1.2,1.3-2.1,2.9-2.8,4.6c-0.7,1.8-1,3.8-1,5.9s0.3,4.1,1,5.9
					c0.7,1.8,1.6,3.3,2.8,4.6c1.2,1.3,2.6,2.3,4.3,3c1.6,0.7,3.4,1.1,5.4,1.1c2.4,0,4.5-0.5,6.3-1.5c1.8-1,3.3-2.4,4.5-4.1l-5.1-5.3
					C154,62,153.2,62.9,152.3,63.4z"/>
				<path class="st0" d="M187,51.5c-0.7-1.8-1.6-3.3-2.9-4.6c-1.2-1.3-2.7-2.3-4.3-3.1c-1.6-0.7-3.5-1.1-5.4-1.1
					c-2,0-3.8,0.4-5.4,1.1c-1.7,0.7-3.1,1.7-4.3,3.1c-1.2,1.3-2.2,2.9-2.8,4.6c-0.7,1.8-1,3.7-1,5.8c0,2.1,0.3,4,1,5.8
					c0.7,1.8,1.6,3.3,2.8,4.6c1.2,1.3,2.7,2.3,4.3,3.1c1.7,0.7,3.5,1.1,5.5,1.1c2,0,3.8-0.4,5.4-1.1c1.7-0.7,3.1-1.7,4.3-3.1
					c1.2-1.3,2.2-2.9,2.9-4.6c0.7-1.8,1-3.7,1-5.8C188,55.2,187.7,53.2,187,51.5z M179.4,60.2c-0.3,0.9-0.7,1.6-1.2,2.2
					c-0.5,0.6-1.1,1.1-1.7,1.4c-0.7,0.3-1.4,0.5-2.1,0.5c-0.8,0-1.5-0.2-2.1-0.5c-0.7-0.3-1.2-0.8-1.7-1.4c-0.5-0.6-0.9-1.3-1.2-2.2
					c-0.3-0.9-0.4-1.8-0.4-2.9s0.1-2.1,0.4-2.9c0.3-0.9,0.7-1.6,1.2-2.2c0.5-0.6,1.1-1,1.7-1.4c0.7-0.3,1.4-0.5,2.1-0.5
					c0.8,0,1.5,0.2,2.1,0.5c0.7,0.3,1.2,0.8,1.7,1.4c0.5,0.6,0.9,1.3,1.2,2.2c0.3,0.9,0.4,1.8,0.4,2.9S179.6,59.4,179.4,60.2z"/>
				<path class="st0" d="M206.9,43.3V56l-9.2-12.7H191v27.9h7.9V58.6l9.2,12.7h6.7V43.3H206.9z"/>
				<path class="st0" d="M218.7,43.3v27.9h8.1V50.4h11.5v-7.1H218.7z M226.3,55.2v7.1H237v-7.1H226.3z"/>
				<path class="st0" d="M249,64.2V50.4h11.6v-7.1H241v27.9h20.1v-7.1H249z M248.4,53.7v6.8h10.8v-6.8H248.4z"/>
				<path class="st0" d="M285.5,48.3c-0.9-1.6-2.2-2.8-3.8-3.6c-1.7-0.9-3.6-1.3-5.8-1.3h-11.6v27.9h8.1v-7h3.5
					c2.2,0,4.2-0.4,5.8-1.2c0.2-0.1,0.4-0.2,0.6-0.3c1.4-0.8,2.4-1.9,3.2-3.2c0.9-1.5,1.3-3.4,1.3-5.6
					C286.9,51.7,286.4,49.9,285.5,48.3z M272.4,61.4l-0.5-0.5l-3.2-3.7h3.6v-6.5h-3.6l3.6-4.3v4.3h3c1.1,0,2,0.3,2.5,0.9
					c0.5,0.6,0.8,1.4,0.8,2.4s-0.3,1.8-0.8,2.4c-0.5,0.6-1.4,0.9-2.5,0.9h-3V61.4z M282.3,62.7l-0.9-1.6h-8.6l1.8,3.2l4.1,7h8.7
					L282.3,62.7z"/>
				<path class="st0" d="M298,64.2V50.4h11.6v-7.1H290v27.9h20.1v-7.1H298z M297.4,53.7v6.8h10.8v-6.8H297.4z"/>
				<path class="st0" d="M329.1,43.3V56l-9.2-12.7h-6.7v27.9h7.9V58.6l9.2,12.7h6.7V43.3H329.1z"/>
				<path class="st0" d="M356.8,63.4c-0.9,0.6-1.8,0.9-2.9,0.9c-0.8,0-1.6-0.2-2.3-0.5c-0.7-0.3-1.3-0.8-1.8-1.4
					c-0.5-0.6-0.9-1.3-1.2-2.2c-0.3-0.9-0.4-1.8-0.4-2.9s0.1-2,0.4-2.9c0.3-0.9,0.7-1.6,1.2-2.2c0.5-0.6,1.1-1.1,1.8-1.4
					s1.5-0.5,2.3-0.5c1.1,0,2.1,0.3,2.9,0.9c0.9,0.6,1.6,1.4,2.4,2.4l5.1-5.3c-1.2-1.8-2.7-3.2-4.5-4.1c-1.8-1-3.9-1.4-6.3-1.4
					c-1.9,0-3.7,0.4-5.4,1.1c-1.7,0.7-3.1,1.7-4.3,3c-1.2,1.3-2.1,2.9-2.8,4.6c-0.7,1.8-1,3.8-1,5.9s0.3,4.1,1,5.9
					c0.7,1.8,1.6,3.3,2.8,4.6c1.2,1.3,2.6,2.3,4.3,3c1.7,0.7,3.4,1.1,5.4,1.1c2.4,0,4.5-0.5,6.3-1.5c1.8-1,3.4-2.4,4.5-4.1l-5.1-5.3
					C358.4,62,357.7,62.9,356.8,63.4z"/>
				<path class="st0" d="M374.7,64.2V50.4h11.6v-7.1h-19.7v27.9h20.1v-7.1H374.7z M374.1,53.7v6.8h10.8v-6.8H374.1z"/>
			</g>
			<path class="st2" d="M224.1,88.7c-0.1-0.4-0.3-0.8-0.6-1.1c-0.2-0.3-0.5-0.5-0.9-0.7c-0.3-0.2-0.7-0.2-1.1-0.2s-0.7,0.1-1.1,0.2
				c-0.3,0.2-0.6,0.4-0.9,0.7c-0.2,0.3-0.4,0.7-0.6,1.1c-0.1,0.4-0.2,0.9-0.2,1.5c0,0.5,0.1,1,0.2,1.5c0.1,0.4,0.3,0.8,0.6,1.1
				c0.2,0.3,0.5,0.5,0.9,0.7c0.3,0.1,0.7,0.2,1.1,0.2s0.7-0.1,1.1-0.2c0.3-0.2,0.6-0.4,0.9-0.7c0.2-0.3,0.4-0.7,0.6-1.1
				c0.1-0.4,0.2-0.9,0.2-1.5C224.3,89.6,224.2,89.1,224.1,88.7z M224.1,88.7c-0.1-0.4-0.3-0.8-0.6-1.1c-0.2-0.3-0.5-0.5-0.9-0.7
				c-0.3-0.2-0.7-0.2-1.1-0.2s-0.7,0.1-1.1,0.2c-0.3,0.2-0.6,0.4-0.9,0.7c-0.2,0.3-0.4,0.7-0.6,1.1c-0.1,0.4-0.2,0.9-0.2,1.5
				c0,0.5,0.1,1,0.2,1.5c0.1,0.4,0.3,0.8,0.6,1.1c0.2,0.3,0.5,0.5,0.9,0.7c0.3,0.1,0.7,0.2,1.1,0.2s0.7-0.1,1.1-0.2
				c0.3-0.2,0.6-0.4,0.9-0.7c0.2-0.3,0.4-0.7,0.6-1.1c0.1-0.4,0.2-0.9,0.2-1.5C224.3,89.6,224.2,89.1,224.1,88.7z M224.1,88.7
				c-0.1-0.4-0.3-0.8-0.6-1.1c-0.2-0.3-0.5-0.5-0.9-0.7c-0.3-0.2-0.7-0.2-1.1-0.2s-0.7,0.1-1.1,0.2c-0.3,0.2-0.6,0.4-0.9,0.7
				c-0.2,0.3-0.4,0.7-0.6,1.1c-0.1,0.4-0.2,0.9-0.2,1.5c0,0.5,0.1,1,0.2,1.5c0.1,0.4,0.3,0.8,0.6,1.1c0.2,0.3,0.5,0.5,0.9,0.7
				c0.3,0.1,0.7,0.2,1.1,0.2s0.7-0.1,1.1-0.2c0.3-0.2,0.6-0.4,0.9-0.7c0.2-0.3,0.4-0.7,0.6-1.1c0.1-0.4,0.2-0.9,0.2-1.5
				C224.3,89.6,224.2,89.1,224.1,88.7z M257.1,90.5c-0.1-0.3-0.3-0.5-0.5-0.7c-0.2-0.2-0.5-0.2-0.8-0.2c-0.3,0-0.5,0.1-0.8,0.2
				c-0.2,0.2-0.4,0.4-0.5,0.7c-0.1,0.3-0.2,0.7-0.2,1.2c0,0.5,0.1,0.9,0.2,1.2c0.1,0.3,0.3,0.6,0.5,0.7c0.2,0.2,0.5,0.2,0.8,0.2
				c0.3,0,0.6-0.1,0.8-0.2c0.2-0.2,0.4-0.4,0.5-0.7c0.1-0.3,0.2-0.7,0.2-1.2C257.3,91.2,257.2,90.8,257.1,90.5z M257.1,90.5
				c-0.1-0.3-0.3-0.5-0.5-0.7c-0.2-0.2-0.5-0.2-0.8-0.2c-0.3,0-0.5,0.1-0.8,0.2c-0.2,0.2-0.4,0.4-0.5,0.7c-0.1,0.3-0.2,0.7-0.2,1.2
				c0,0.5,0.1,0.9,0.2,1.2c0.1,0.3,0.3,0.6,0.5,0.7c0.2,0.2,0.5,0.2,0.8,0.2c0.3,0,0.6-0.1,0.8-0.2c0.2-0.2,0.4-0.4,0.5-0.7
				c0.1-0.3,0.2-0.7,0.2-1.2C257.3,91.2,257.2,90.8,257.1,90.5z M224.1,88.7c-0.1-0.4-0.3-0.8-0.6-1.1c-0.2-0.3-0.5-0.5-0.9-0.7
				c-0.3-0.2-0.7-0.2-1.1-0.2s-0.7,0.1-1.1,0.2c-0.3,0.2-0.6,0.4-0.9,0.7c-0.2,0.3-0.4,0.7-0.6,1.1c-0.1,0.4-0.2,0.9-0.2,1.5
				c0,0.5,0.1,1,0.2,1.5c0.1,0.4,0.3,0.8,0.6,1.1c0.2,0.3,0.5,0.5,0.9,0.7c0.3,0.1,0.7,0.2,1.1,0.2s0.7-0.1,1.1-0.2
				c0.3-0.2,0.6-0.4,0.9-0.7c0.2-0.3,0.4-0.7,0.6-1.1c0.1-0.4,0.2-0.9,0.2-1.5C224.3,89.6,224.2,89.1,224.1,88.7z M224.1,88.7
				c-0.1-0.4-0.3-0.8-0.6-1.1c-0.2-0.3-0.5-0.5-0.9-0.7c-0.3-0.2-0.7-0.2-1.1-0.2s-0.7,0.1-1.1,0.2c-0.3,0.2-0.6,0.4-0.9,0.7
				c-0.2,0.3-0.4,0.7-0.6,1.1c-0.1,0.4-0.2,0.9-0.2,1.5c0,0.5,0.1,1,0.2,1.5c0.1,0.4,0.3,0.8,0.6,1.1c0.2,0.3,0.5,0.5,0.9,0.7
				c0.3,0.1,0.7,0.2,1.1,0.2s0.7-0.1,1.1-0.2c0.3-0.2,0.6-0.4,0.9-0.7c0.2-0.3,0.4-0.7,0.6-1.1c0.1-0.4,0.2-0.9,0.2-1.5
				C224.3,89.6,224.2,89.1,224.1,88.7z M257.1,90.5c-0.1-0.3-0.3-0.5-0.5-0.7c-0.2-0.2-0.5-0.2-0.8-0.2c-0.3,0-0.5,0.1-0.8,0.2
				c-0.2,0.2-0.4,0.4-0.5,0.7c-0.1,0.3-0.2,0.7-0.2,1.2c0,0.5,0.1,0.9,0.2,1.2c0.1,0.3,0.3,0.6,0.5,0.7c0.2,0.2,0.5,0.2,0.8,0.2
				c0.3,0,0.6-0.1,0.8-0.2c0.2-0.2,0.4-0.4,0.5-0.7c0.1-0.3,0.2-0.7,0.2-1.2C257.3,91.2,257.2,90.8,257.1,90.5z M270,90.5
				c-0.1-0.3-0.3-0.5-0.5-0.7c-0.2-0.2-0.5-0.2-0.8-0.2c-0.3,0-0.5,0.1-0.8,0.2c-0.2,0.2-0.4,0.4-0.5,0.7c-0.1,0.3-0.2,0.7-0.2,1.2
				c0,0.5,0.1,0.9,0.2,1.2c0.1,0.3,0.3,0.6,0.5,0.7c0.2,0.2,0.5,0.2,0.8,0.2c0.3,0,0.6-0.1,0.8-0.2c0.2-0.2,0.4-0.4,0.5-0.7
				c0.1-0.3,0.2-0.7,0.2-1.2C270.2,91.2,270.2,90.8,270,90.5z M270,90.5c-0.1-0.3-0.3-0.5-0.5-0.7c-0.2-0.2-0.5-0.2-0.8-0.2
				c-0.3,0-0.5,0.1-0.8,0.2c-0.2,0.2-0.4,0.4-0.5,0.7c-0.1,0.3-0.2,0.7-0.2,1.2c0,0.5,0.1,0.9,0.2,1.2c0.1,0.3,0.3,0.6,0.5,0.7
				c0.2,0.2,0.5,0.2,0.8,0.2c0.3,0,0.6-0.1,0.8-0.2c0.2-0.2,0.4-0.4,0.5-0.7c0.1-0.3,0.2-0.7,0.2-1.2
				C270.2,91.2,270.2,90.8,270,90.5z M257.1,90.5c-0.1-0.3-0.3-0.5-0.5-0.7c-0.2-0.2-0.5-0.2-0.8-0.2c-0.3,0-0.5,0.1-0.8,0.2
				c-0.2,0.2-0.4,0.4-0.5,0.7c-0.1,0.3-0.2,0.7-0.2,1.2c0,0.5,0.1,0.9,0.2,1.2c0.1,0.3,0.3,0.6,0.5,0.7c0.2,0.2,0.5,0.2,0.8,0.2
				c0.3,0,0.6-0.1,0.8-0.2c0.2-0.2,0.4-0.4,0.5-0.7c0.1-0.3,0.2-0.7,0.2-1.2C257.3,91.2,257.2,90.8,257.1,90.5z M224.1,88.7
				c-0.1-0.4-0.3-0.8-0.6-1.1c-0.2-0.3-0.5-0.5-0.9-0.7c-0.3-0.2-0.7-0.2-1.1-0.2s-0.7,0.1-1.1,0.2c-0.3,0.2-0.6,0.4-0.9,0.7
				c-0.2,0.3-0.4,0.7-0.6,1.1c-0.1,0.4-0.2,0.9-0.2,1.5c0,0.5,0.1,1,0.2,1.5c0.1,0.4,0.3,0.8,0.6,1.1c0.2,0.3,0.5,0.5,0.9,0.7
				c0.3,0.1,0.7,0.2,1.1,0.2s0.7-0.1,1.1-0.2c0.3-0.2,0.6-0.4,0.9-0.7c0.2-0.3,0.4-0.7,0.6-1.1c0.1-0.4,0.2-0.9,0.2-1.5
				C224.3,89.6,224.2,89.1,224.1,88.7z M224.1,88.7c-0.1-0.4-0.3-0.8-0.6-1.1c-0.2-0.3-0.5-0.5-0.9-0.7c-0.3-0.2-0.7-0.2-1.1-0.2
				s-0.7,0.1-1.1,0.2c-0.3,0.2-0.6,0.4-0.9,0.7c-0.2,0.3-0.4,0.7-0.6,1.1c-0.1,0.4-0.2,0.9-0.2,1.5c0,0.5,0.1,1,0.2,1.5
				c0.1,0.4,0.3,0.8,0.6,1.1c0.2,0.3,0.5,0.5,0.9,0.7c0.3,0.1,0.7,0.2,1.1,0.2s0.7-0.1,1.1-0.2c0.3-0.2,0.6-0.4,0.9-0.7
				c0.2-0.3,0.4-0.7,0.6-1.1c0.1-0.4,0.2-0.9,0.2-1.5C224.3,89.6,224.2,89.1,224.1,88.7z M257.1,90.5c-0.1-0.3-0.3-0.5-0.5-0.7
				c-0.2-0.2-0.5-0.2-0.8-0.2c-0.3,0-0.5,0.1-0.8,0.2c-0.2,0.2-0.4,0.4-0.5,0.7c-0.1,0.3-0.2,0.7-0.2,1.2c0,0.5,0.1,0.9,0.2,1.2
				c0.1,0.3,0.3,0.6,0.5,0.7c0.2,0.2,0.5,0.2,0.8,0.2c0.3,0,0.6-0.1,0.8-0.2c0.2-0.2,0.4-0.4,0.5-0.7c0.1-0.3,0.2-0.7,0.2-1.2
				C257.3,91.2,257.2,90.8,257.1,90.5z M270,90.5c-0.1-0.3-0.3-0.5-0.5-0.7c-0.2-0.2-0.5-0.2-0.8-0.2c-0.3,0-0.5,0.1-0.8,0.2
				c-0.2,0.2-0.4,0.4-0.5,0.7c-0.1,0.3-0.2,0.7-0.2,1.2c0,0.5,0.1,0.9,0.2,1.2c0.1,0.3,0.3,0.6,0.5,0.7c0.2,0.2,0.5,0.2,0.8,0.2
				c0.3,0,0.6-0.1,0.8-0.2c0.2-0.2,0.4-0.4,0.5-0.7c0.1-0.3,0.2-0.7,0.2-1.2C270.2,91.2,270.2,90.8,270,90.5z M282.5,90
				c-0.1-0.3-0.3-0.5-0.5-0.7c-0.2-0.2-0.5-0.2-0.8-0.2s-0.6,0.1-0.8,0.2c-0.2,0.2-0.4,0.4-0.5,0.7c-0.1,0.2-0.1,0.3-0.1,0.5h3
				C282.6,90.4,282.6,90.2,282.5,90z M282.5,90c-0.1-0.3-0.3-0.5-0.5-0.7c-0.2-0.2-0.5-0.2-0.8-0.2s-0.6,0.1-0.8,0.2
				c-0.2,0.2-0.4,0.4-0.5,0.7c-0.1,0.2-0.1,0.3-0.1,0.5h3C282.6,90.4,282.6,90.2,282.5,90z M270,90.5c-0.1-0.3-0.3-0.5-0.5-0.7
				c-0.2-0.2-0.5-0.2-0.8-0.2c-0.3,0-0.5,0.1-0.8,0.2c-0.2,0.2-0.4,0.4-0.5,0.7c-0.1,0.3-0.2,0.7-0.2,1.2c0,0.5,0.1,0.9,0.2,1.2
				c0.1,0.3,0.3,0.6,0.5,0.7c0.2,0.2,0.5,0.2,0.8,0.2c0.3,0,0.6-0.1,0.8-0.2c0.2-0.2,0.4-0.4,0.5-0.7c0.1-0.3,0.2-0.7,0.2-1.2
				C270.2,91.2,270.2,90.8,270,90.5z M257.1,90.5c-0.1-0.3-0.3-0.5-0.5-0.7c-0.2-0.2-0.5-0.2-0.8-0.2c-0.3,0-0.5,0.1-0.8,0.2
				c-0.2,0.2-0.4,0.4-0.5,0.7c-0.1,0.3-0.2,0.7-0.2,1.2c0,0.5,0.1,0.9,0.2,1.2c0.1,0.3,0.3,0.6,0.5,0.7c0.2,0.2,0.5,0.2,0.8,0.2
				c0.3,0,0.6-0.1,0.8-0.2c0.2-0.2,0.4-0.4,0.5-0.7c0.1-0.3,0.2-0.7,0.2-1.2C257.3,91.2,257.2,90.8,257.1,90.5z M224.1,88.7
				c-0.1-0.4-0.3-0.8-0.6-1.1c-0.2-0.3-0.5-0.5-0.9-0.7c-0.3-0.2-0.7-0.2-1.1-0.2s-0.7,0.1-1.1,0.2c-0.3,0.2-0.6,0.4-0.9,0.7
				c-0.2,0.3-0.4,0.7-0.6,1.1c-0.1,0.4-0.2,0.9-0.2,1.5c0,0.5,0.1,1,0.2,1.5c0.1,0.4,0.3,0.8,0.6,1.1c0.2,0.3,0.5,0.5,0.9,0.7
				c0.3,0.1,0.7,0.2,1.1,0.2s0.7-0.1,1.1-0.2c0.3-0.2,0.6-0.4,0.9-0.7c0.2-0.3,0.4-0.7,0.6-1.1c0.1-0.4,0.2-0.9,0.2-1.5
				C224.3,89.6,224.2,89.1,224.1,88.7z M224.1,88.7c-0.1-0.4-0.3-0.8-0.6-1.1c-0.2-0.3-0.5-0.5-0.9-0.7c-0.3-0.2-0.7-0.2-1.1-0.2
				s-0.7,0.1-1.1,0.2c-0.3,0.2-0.6,0.4-0.9,0.7c-0.2,0.3-0.4,0.7-0.6,1.1c-0.1,0.4-0.2,0.9-0.2,1.5c0,0.5,0.1,1,0.2,1.5
				c0.1,0.4,0.3,0.8,0.6,1.1c0.2,0.3,0.5,0.5,0.9,0.7c0.3,0.1,0.7,0.2,1.1,0.2s0.7-0.1,1.1-0.2c0.3-0.2,0.6-0.4,0.9-0.7
				c0.2-0.3,0.4-0.7,0.6-1.1c0.1-0.4,0.2-0.9,0.2-1.5C224.3,89.6,224.2,89.1,224.1,88.7z M257.1,90.5c-0.1-0.3-0.3-0.5-0.5-0.7
				c-0.2-0.2-0.5-0.2-0.8-0.2c-0.3,0-0.5,0.1-0.8,0.2c-0.2,0.2-0.4,0.4-0.5,0.7c-0.1,0.3-0.2,0.7-0.2,1.2c0,0.5,0.1,0.9,0.2,1.2
				c0.1,0.3,0.3,0.6,0.5,0.7c0.2,0.2,0.5,0.2,0.8,0.2c0.3,0,0.6-0.1,0.8-0.2c0.2-0.2,0.4-0.4,0.5-0.7c0.1-0.3,0.2-0.7,0.2-1.2
				C257.3,91.2,257.2,90.8,257.1,90.5z M270,90.5c-0.1-0.3-0.3-0.5-0.5-0.7c-0.2-0.2-0.5-0.2-0.8-0.2c-0.3,0-0.5,0.1-0.8,0.2
				c-0.2,0.2-0.4,0.4-0.5,0.7c-0.1,0.3-0.2,0.7-0.2,1.2c0,0.5,0.1,0.9,0.2,1.2c0.1,0.3,0.3,0.6,0.5,0.7c0.2,0.2,0.5,0.2,0.8,0.2
				c0.3,0,0.6-0.1,0.8-0.2c0.2-0.2,0.4-0.4,0.5-0.7c0.1-0.3,0.2-0.7,0.2-1.2C270.2,91.2,270.2,90.8,270,90.5z M282.5,90
				c-0.1-0.3-0.3-0.5-0.5-0.7c-0.2-0.2-0.5-0.2-0.8-0.2s-0.6,0.1-0.8,0.2c-0.2,0.2-0.4,0.4-0.5,0.7c-0.1,0.2-0.1,0.3-0.1,0.5h3
				C282.6,90.4,282.6,90.2,282.5,90z M282.5,90c-0.1-0.3-0.3-0.5-0.5-0.7c-0.2-0.2-0.5-0.2-0.8-0.2s-0.6,0.1-0.8,0.2
				c-0.2,0.2-0.4,0.4-0.5,0.7c-0.1,0.2-0.1,0.3-0.1,0.5h3C282.6,90.4,282.6,90.2,282.5,90z M270,90.5c-0.1-0.3-0.3-0.5-0.5-0.7
				c-0.2-0.2-0.5-0.2-0.8-0.2c-0.3,0-0.5,0.1-0.8,0.2c-0.2,0.2-0.4,0.4-0.5,0.7c-0.1,0.3-0.2,0.7-0.2,1.2c0,0.5,0.1,0.9,0.2,1.2
				c0.1,0.3,0.3,0.6,0.5,0.7c0.2,0.2,0.5,0.2,0.8,0.2c0.3,0,0.6-0.1,0.8-0.2c0.2-0.2,0.4-0.4,0.5-0.7c0.1-0.3,0.2-0.7,0.2-1.2
				C270.2,91.2,270.2,90.8,270,90.5z M257.1,90.5c-0.1-0.3-0.3-0.5-0.5-0.7c-0.2-0.2-0.5-0.2-0.8-0.2c-0.3,0-0.5,0.1-0.8,0.2
				c-0.2,0.2-0.4,0.4-0.5,0.7c-0.1,0.3-0.2,0.7-0.2,1.2c0,0.5,0.1,0.9,0.2,1.2c0.1,0.3,0.3,0.6,0.5,0.7c0.2,0.2,0.5,0.2,0.8,0.2
				c0.3,0,0.6-0.1,0.8-0.2c0.2-0.2,0.4-0.4,0.5-0.7c0.1-0.3,0.2-0.7,0.2-1.2C257.3,91.2,257.2,90.8,257.1,90.5z M224.1,88.7
				c-0.1-0.4-0.3-0.8-0.6-1.1c-0.2-0.3-0.5-0.5-0.9-0.7c-0.3-0.2-0.7-0.2-1.1-0.2s-0.7,0.1-1.1,0.2c-0.3,0.2-0.6,0.4-0.9,0.7
				c-0.2,0.3-0.4,0.7-0.6,1.1c-0.1,0.4-0.2,0.9-0.2,1.5c0,0.5,0.1,1,0.2,1.5c0.1,0.4,0.3,0.8,0.6,1.1c0.2,0.3,0.5,0.5,0.9,0.7
				c0.3,0.1,0.7,0.2,1.1,0.2s0.7-0.1,1.1-0.2c0.3-0.2,0.6-0.4,0.9-0.7c0.2-0.3,0.4-0.7,0.6-1.1c0.1-0.4,0.2-0.9,0.2-1.5
				C224.3,89.6,224.2,89.1,224.1,88.7z M224.1,88.7c-0.1-0.4-0.3-0.8-0.6-1.1c-0.2-0.3-0.5-0.5-0.9-0.7c-0.3-0.2-0.7-0.2-1.1-0.2
				s-0.7,0.1-1.1,0.2c-0.3,0.2-0.6,0.4-0.9,0.7c-0.2,0.3-0.4,0.7-0.6,1.1c-0.1,0.4-0.2,0.9-0.2,1.5c0,0.5,0.1,1,0.2,1.5
				c0.1,0.4,0.3,0.8,0.6,1.1c0.2,0.3,0.5,0.5,0.9,0.7c0.3,0.1,0.7,0.2,1.1,0.2s0.7-0.1,1.1-0.2c0.3-0.2,0.6-0.4,0.9-0.7
				c0.2-0.3,0.4-0.7,0.6-1.1c0.1-0.4,0.2-0.9,0.2-1.5C224.3,89.6,224.2,89.1,224.1,88.7z M257.1,90.5c-0.1-0.3-0.3-0.5-0.5-0.7
				c-0.2-0.2-0.5-0.2-0.8-0.2c-0.3,0-0.5,0.1-0.8,0.2c-0.2,0.2-0.4,0.4-0.5,0.7c-0.1,0.3-0.2,0.7-0.2,1.2c0,0.5,0.1,0.9,0.2,1.2
				c0.1,0.3,0.3,0.6,0.5,0.7c0.2,0.2,0.5,0.2,0.8,0.2c0.3,0,0.6-0.1,0.8-0.2c0.2-0.2,0.4-0.4,0.5-0.7c0.1-0.3,0.2-0.7,0.2-1.2
				C257.3,91.2,257.2,90.8,257.1,90.5z M270,90.5c-0.1-0.3-0.3-0.5-0.5-0.7c-0.2-0.2-0.5-0.2-0.8-0.2c-0.3,0-0.5,0.1-0.8,0.2
				c-0.2,0.2-0.4,0.4-0.5,0.7c-0.1,0.3-0.2,0.7-0.2,1.2c0,0.5,0.1,0.9,0.2,1.2c0.1,0.3,0.3,0.6,0.5,0.7c0.2,0.2,0.5,0.2,0.8,0.2
				c0.3,0,0.6-0.1,0.8-0.2c0.2-0.2,0.4-0.4,0.5-0.7c0.1-0.3,0.2-0.7,0.2-1.2C270.2,91.2,270.2,90.8,270,90.5z M282.5,90
				c-0.1-0.3-0.3-0.5-0.5-0.7c-0.2-0.2-0.5-0.2-0.8-0.2s-0.6,0.1-0.8,0.2c-0.2,0.2-0.4,0.4-0.5,0.7c-0.1,0.2-0.1,0.3-0.1,0.5h3
				C282.6,90.4,282.6,90.2,282.5,90z M326.7,88c-0.1-0.5-0.3-0.9-0.5-1.1c-0.2-0.2-0.4-0.3-0.7-0.3c-0.3,0-0.5,0.1-0.7,0.3
				c-0.2,0.2-0.4,0.6-0.5,1.1c-0.1,0.5-0.2,1.2-0.2,2.1c0,0.9,0.1,1.6,0.2,2.1c0.1,0.5,0.3,0.9,0.5,1.1c0.2,0.2,0.4,0.3,0.7,0.3
				c0.3,0,0.5-0.1,0.7-0.3c0.2-0.2,0.4-0.6,0.5-1.1c0.1-0.5,0.2-1.2,0.2-2.1C326.9,89.2,326.9,88.5,326.7,88z M326.7,88
				c-0.1-0.5-0.3-0.9-0.5-1.1c-0.2-0.2-0.4-0.3-0.7-0.3c-0.3,0-0.5,0.1-0.7,0.3c-0.2,0.2-0.4,0.6-0.5,1.1c-0.1,0.5-0.2,1.2-0.2,2.1
				c0,0.9,0.1,1.6,0.2,2.1c0.1,0.5,0.3,0.9,0.5,1.1c0.2,0.2,0.4,0.3,0.7,0.3c0.3,0,0.5-0.1,0.7-0.3c0.2-0.2,0.4-0.6,0.5-1.1
				c0.1-0.5,0.2-1.2,0.2-2.1C326.9,89.2,326.9,88.5,326.7,88z M282.5,90c-0.1-0.3-0.3-0.5-0.5-0.7c-0.2-0.2-0.5-0.2-0.8-0.2
				s-0.6,0.1-0.8,0.2c-0.2,0.2-0.4,0.4-0.5,0.7c-0.1,0.2-0.1,0.3-0.1,0.5h3C282.6,90.4,282.6,90.2,282.5,90z M270,90.5
				c-0.1-0.3-0.3-0.5-0.5-0.7c-0.2-0.2-0.5-0.2-0.8-0.2c-0.3,0-0.5,0.1-0.8,0.2c-0.2,0.2-0.4,0.4-0.5,0.7c-0.1,0.3-0.2,0.7-0.2,1.2
				c0,0.5,0.1,0.9,0.2,1.2c0.1,0.3,0.3,0.6,0.5,0.7c0.2,0.2,0.5,0.2,0.8,0.2c0.3,0,0.6-0.1,0.8-0.2c0.2-0.2,0.4-0.4,0.5-0.7
				c0.1-0.3,0.2-0.7,0.2-1.2C270.2,91.2,270.2,90.8,270,90.5z M257.1,90.5c-0.1-0.3-0.3-0.5-0.5-0.7c-0.2-0.2-0.5-0.2-0.8-0.2
				c-0.3,0-0.5,0.1-0.8,0.2c-0.2,0.2-0.4,0.4-0.5,0.7c-0.1,0.3-0.2,0.7-0.2,1.2c0,0.5,0.1,0.9,0.2,1.2c0.1,0.3,0.3,0.6,0.5,0.7
				c0.2,0.2,0.5,0.2,0.8,0.2c0.3,0,0.6-0.1,0.8-0.2c0.2-0.2,0.4-0.4,0.5-0.7c0.1-0.3,0.2-0.7,0.2-1.2
				C257.3,91.2,257.2,90.8,257.1,90.5z M224.1,88.7c-0.1-0.4-0.3-0.8-0.6-1.1c-0.2-0.3-0.5-0.5-0.9-0.7c-0.3-0.2-0.7-0.2-1.1-0.2
				s-0.7,0.1-1.1,0.2c-0.3,0.2-0.6,0.4-0.9,0.7c-0.2,0.3-0.4,0.7-0.6,1.1c-0.1,0.4-0.2,0.9-0.2,1.5c0,0.5,0.1,1,0.2,1.5
				c0.1,0.4,0.3,0.8,0.6,1.1c0.2,0.3,0.5,0.5,0.9,0.7c0.3,0.1,0.7,0.2,1.1,0.2s0.7-0.1,1.1-0.2c0.3-0.2,0.6-0.4,0.9-0.7
				c0.2-0.3,0.4-0.7,0.6-1.1c0.1-0.4,0.2-0.9,0.2-1.5C224.3,89.6,224.2,89.1,224.1,88.7z M381.3,75.4H141c-3,0-5.5,2.4-5.5,5.5v18
				c0,3,2.5,5.5,5.5,5.5h240.3c3,0,5.5-2.4,5.5-5.5v-18C386.8,77.9,384.3,75.4,381.3,75.4z M173.6,97.1h-4.1V86.7h-2.1v-3.5h6.1
				V97.1z M187.4,93.1h-5.2v-3.4h5.2V93.1z M207.3,94.7h-1.6v2.4h-4v-2.4h-6.3v-3l5.1-8.6h4.2l-4.6,7.9h1.6V89h3.8v2.1h1.6V94.7z
				 M227.9,93.1c-0.3,0.9-0.8,1.7-1.4,2.3c-0.6,0.6-1.3,1.2-2.2,1.5c-0.8,0.4-1.7,0.5-2.7,0.5c-1,0-1.9-0.2-2.7-0.5
				c-0.8-0.4-1.6-0.9-2.2-1.5c-0.6-0.7-1.1-1.4-1.4-2.3c-0.3-0.9-0.5-1.9-0.5-2.9c0-1.1,0.2-2,0.5-2.9c0.3-0.9,0.8-1.6,1.4-2.3
				c0.6-0.6,1.3-1.2,2.2-1.5c0.8-0.4,1.7-0.5,2.7-0.5c1,0,1.9,0.2,2.7,0.5c0.8,0.4,1.5,0.9,2.2,1.5c0.6,0.7,1.1,1.4,1.4,2.3
				c0.3,0.9,0.5,1.9,0.5,2.9C228.4,91.2,228.2,92.2,227.9,93.1z M234.3,92.9c0.1,0.3,0.3,0.6,0.6,0.7c0.2,0.2,0.5,0.2,0.8,0.2
				c0.3,0,0.7-0.1,0.9-0.3c0.3-0.2,0.5-0.6,0.7-1.1l3,1.7c-0.3,1-0.9,1.8-1.7,2.4c-0.8,0.6-1.8,0.9-3,0.9c-1.1,0-2-0.2-2.9-0.7
				c-0.8-0.5-1.5-1.1-2-2c-0.5-0.9-0.7-1.8-0.7-2.9c0-1.1,0.2-2.1,0.7-2.9c0.5-0.8,1.1-1.5,2-2c0.8-0.5,1.8-0.7,2.9-0.7
				c1.1,0,2.1,0.3,3,0.9c0.8,0.6,1.4,1.4,1.7,2.4l-3,1.7c-0.2-0.5-0.4-0.9-0.7-1.1c-0.3-0.2-0.6-0.3-0.9-0.3c-0.3,0-0.5,0.1-0.8,0.2
				c-0.2,0.2-0.4,0.4-0.6,0.7c-0.1,0.3-0.2,0.7-0.2,1.2C234,92.1,234.1,92.5,234.3,92.9z M248.1,97.2c-0.4,0.1-0.9,0.1-1.3,0.1
				c-1.3,0-2.3-0.4-3-1.1c-0.7-0.7-1.1-1.8-1.1-3.3v-2.8h-1.3v-3.3h1.3v-3h3.9v3h1.9v3.3h-1.9v2.8c0,0.3,0.1,0.6,0.2,0.8
				c0.2,0.2,0.3,0.3,0.6,0.3c0.3,0,0.6-0.1,0.9-0.3l0.9,3.1C248.9,96.9,248.5,97.1,248.1,97.2z M260.5,94.6c-0.5,0.8-1.1,1.5-1.9,2
				c-0.8,0.5-1.8,0.7-2.9,0.7c-1.1,0-2-0.2-2.8-0.7c-0.8-0.5-1.5-1.2-1.9-2c-0.5-0.9-0.7-1.8-0.7-2.9c0-1.1,0.2-2.1,0.7-2.9
				c0.5-0.8,1.1-1.5,1.9-2c0.8-0.5,1.8-0.7,2.8-0.7c1.1,0,2,0.2,2.9,0.7c0.8,0.5,1.5,1.2,1.9,2c0.5,0.9,0.7,1.8,0.7,2.9
				C261.2,92.8,261,93.7,260.5,94.6z M273.6,94.7c-0.4,0.8-1,1.5-1.7,2s-1.5,0.7-2.3,0.7c-0.9,0-1.6-0.2-2.1-0.6
				c-0.2-0.1-0.3-0.3-0.5-0.5v0.9h-3.7V82.3h3.9V87c0.1-0.1,0.2-0.2,0.4-0.3c0.5-0.4,1.2-0.6,2-0.6c0.8,0,1.6,0.2,2.3,0.7
				c0.7,0.4,1.2,1.1,1.7,1.9c0.4,0.8,0.6,1.8,0.6,3C274.2,92.8,274,93.8,273.6,94.7z M286.3,92.2c0,0.2,0,0.4,0,0.5h-6.5
				c0,0.1,0,0.2,0.1,0.3c0.2,0.3,0.4,0.6,0.7,0.7c0.3,0.2,0.7,0.2,1.1,0.2c0.4,0,0.8-0.1,1.1-0.2c0.3-0.1,0.6-0.3,0.9-0.6l2,2.4
				c-0.5,0.6-1,1-1.7,1.3s-1.5,0.5-2.4,0.5c-1.2,0-2.2-0.2-3-0.7s-1.5-1.2-2-2c-0.5-0.9-0.7-1.8-0.7-2.9c0-1.1,0.2-2.1,0.7-2.9
				c0.5-0.8,1.1-1.5,1.9-2c0.8-0.5,1.7-0.7,2.7-0.7c0.9,0,1.8,0.2,2.6,0.6c0.8,0.4,1.4,1,1.9,1.9c0.5,0.8,0.7,1.9,0.7,3.1
				C286.3,91.8,286.3,92,286.3,92.2z M295.2,90c-0.2,0-0.3,0-0.5-0.1s-0.3,0-0.4,0c-0.6,0-1.1,0.2-1.4,0.5c-0.4,0.3-0.6,1-0.6,1.8
				v4.8h-3.9V86.2h3.7v1.2c0.2-0.3,0.5-0.5,0.8-0.7c0.6-0.4,1.4-0.6,2.3-0.6V90z M300.9,95.4c0,0.2-0.1,0.5-0.2,0.8
				c-0.1,0.3-0.2,0.7-0.4,1.2l-1.2,3h-2.4l0.9-3.4c-0.2-0.1-0.3-0.2-0.5-0.4c-0.4-0.4-0.6-1-0.6-1.8c0-0.8,0.2-1.4,0.6-1.9
				s1-0.7,1.6-0.7c0.7,0,1.2,0.2,1.6,0.7s0.6,1.1,0.6,1.9C301,94.9,301,95.1,300.9,95.4z M318.4,97.1h-9.7v-2.9l4.4-4.7
				c0.3-0.3,0.5-0.6,0.6-0.8c0.1-0.2,0.2-0.4,0.3-0.6c0.1-0.2,0.1-0.3,0.1-0.5c0-0.3-0.1-0.6-0.3-0.8c-0.2-0.2-0.5-0.3-0.9-0.3
				c-0.4,0-0.7,0.1-1,0.3c-0.3,0.2-0.6,0.5-0.8,1l-3.1-1.8c0.4-1,1.1-1.7,2-2.3c0.9-0.6,2-0.9,3.3-0.9c1,0,1.8,0.2,2.5,0.5
				c0.7,0.4,1.3,0.9,1.7,1.5c0.4,0.7,0.6,1.4,0.6,2.3c0,0.5,0,0.9-0.2,1.4c-0.1,0.4-0.3,0.9-0.6,1.4c-0.3,0.5-0.7,1-1.3,1.7
				l-1.7,1.8h4.1V97.1z M330.3,94.1c-0.5,1.1-1.1,1.9-1.9,2.5c-0.8,0.6-1.8,0.9-2.8,0.9c-1.1,0-2-0.3-2.8-0.9
				c-0.8-0.6-1.5-1.4-1.9-2.5c-0.5-1.1-0.7-2.4-0.7-3.9c0-1.5,0.2-2.9,0.7-3.9c0.5-1.1,1.1-1.9,1.9-2.5c0.8-0.6,1.8-0.9,2.8-0.9
				c1.1,0,2,0.3,2.8,0.9c0.8,0.6,1.5,1.4,1.9,2.5c0.5,1.1,0.7,2.4,0.7,3.9C331,91.7,330.8,93,330.3,94.1z M342.4,97.1h-9.7v-2.9
				l4.4-4.7c0.3-0.3,0.5-0.6,0.6-0.8c0.1-0.2,0.2-0.4,0.3-0.6c0-0.2,0.1-0.3,0.1-0.5c0-0.3-0.1-0.6-0.3-0.8
				c-0.2-0.2-0.5-0.3-0.9-0.3c-0.3,0-0.7,0.1-1,0.3c-0.3,0.2-0.6,0.5-0.8,1l-3.1-1.8c0.4-1,1.1-1.7,2-2.3c0.9-0.6,2-0.9,3.3-0.9
				c1,0,1.8,0.2,2.5,0.5c0.7,0.4,1.3,0.9,1.7,1.5c0.4,0.7,0.6,1.4,0.6,2.3c0,0.5,0,0.9-0.1,1.4c-0.1,0.4-0.3,0.9-0.6,1.4
				s-0.7,1-1.3,1.7l-1.7,1.8h4.1V97.1z M355.8,94.7h-1.6v2.4h-4v-2.4h-6.3v-3l5.1-8.6h4.2l-4.5,7.9h1.6V89h3.8v2.1h1.6V94.7z
				 M326.2,86.9c-0.2-0.2-0.4-0.3-0.7-0.3c-0.3,0-0.5,0.1-0.7,0.3c-0.2,0.2-0.4,0.6-0.5,1.1c-0.1,0.5-0.2,1.2-0.2,2.1
				c0,0.9,0.1,1.6,0.2,2.1c0.1,0.5,0.3,0.9,0.5,1.1c0.2,0.2,0.4,0.3,0.7,0.3c0.3,0,0.5-0.1,0.7-0.3c0.2-0.2,0.4-0.6,0.5-1.1
				c0.1-0.5,0.2-1.2,0.2-2.1c0-0.9-0.1-1.6-0.2-2.1C326.6,87.5,326.5,87.2,326.2,86.9z M282,89.3c-0.2-0.2-0.5-0.2-0.8-0.2
				s-0.6,0.1-0.8,0.2c-0.2,0.2-0.4,0.4-0.5,0.7c-0.1,0.2-0.1,0.3-0.1,0.5h3c0-0.2-0.1-0.4-0.2-0.5C282.4,89.7,282.2,89.5,282,89.3z
				 M269.5,89.8c-0.2-0.2-0.5-0.2-0.8-0.2c-0.3,0-0.5,0.1-0.8,0.2c-0.2,0.2-0.4,0.4-0.5,0.7c-0.1,0.3-0.2,0.7-0.2,1.2
				c0,0.5,0.1,0.9,0.2,1.2c0.1,0.3,0.3,0.6,0.5,0.7c0.2,0.2,0.5,0.2,0.8,0.2c0.3,0,0.6-0.1,0.8-0.2c0.2-0.2,0.4-0.4,0.5-0.7
				c0.1-0.3,0.2-0.7,0.2-1.2c0-0.5-0.1-0.9-0.2-1.2S269.7,89.9,269.5,89.8z M256.5,89.8c-0.2-0.2-0.5-0.2-0.8-0.2
				c-0.3,0-0.5,0.1-0.8,0.2c-0.2,0.2-0.4,0.4-0.5,0.7c-0.1,0.3-0.2,0.7-0.2,1.2c0,0.5,0.1,0.9,0.2,1.2c0.1,0.3,0.3,0.6,0.5,0.7
				c0.2,0.2,0.5,0.2,0.8,0.2c0.3,0,0.6-0.1,0.8-0.2c0.2-0.2,0.4-0.4,0.5-0.7c0.1-0.3,0.2-0.7,0.2-1.2c0-0.5-0.1-0.9-0.2-1.2
				S256.8,89.9,256.5,89.8z M223.5,87.6c-0.2-0.3-0.5-0.5-0.9-0.7c-0.3-0.2-0.7-0.2-1.1-0.2s-0.7,0.1-1.1,0.2
				c-0.3,0.2-0.6,0.4-0.9,0.7c-0.2,0.3-0.4,0.7-0.6,1.1c-0.1,0.4-0.2,0.9-0.2,1.5c0,0.5,0.1,1,0.2,1.5c0.1,0.4,0.3,0.8,0.6,1.1
				c0.2,0.3,0.5,0.5,0.9,0.7c0.3,0.1,0.7,0.2,1.1,0.2s0.7-0.1,1.1-0.2c0.3-0.2,0.6-0.4,0.9-0.7c0.2-0.3,0.4-0.7,0.6-1.1
				c0.1-0.4,0.2-0.9,0.2-1.5c0-0.5-0.1-1-0.2-1.5C223.9,88.3,223.7,87.9,223.5,87.6z M224.1,88.7c-0.1-0.4-0.3-0.8-0.6-1.1
				c-0.2-0.3-0.5-0.5-0.9-0.7c-0.3-0.2-0.7-0.2-1.1-0.2s-0.7,0.1-1.1,0.2c-0.3,0.2-0.6,0.4-0.9,0.7c-0.2,0.3-0.4,0.7-0.6,1.1
				c-0.1,0.4-0.2,0.9-0.2,1.5c0,0.5,0.1,1,0.2,1.5c0.1,0.4,0.3,0.8,0.6,1.1c0.2,0.3,0.5,0.5,0.9,0.7c0.3,0.1,0.7,0.2,1.1,0.2
				s0.7-0.1,1.1-0.2c0.3-0.2,0.6-0.4,0.9-0.7c0.2-0.3,0.4-0.7,0.6-1.1c0.1-0.4,0.2-0.9,0.2-1.5C224.3,89.6,224.2,89.1,224.1,88.7z
				 M257.1,90.5c-0.1-0.3-0.3-0.5-0.5-0.7c-0.2-0.2-0.5-0.2-0.8-0.2c-0.3,0-0.5,0.1-0.8,0.2c-0.2,0.2-0.4,0.4-0.5,0.7
				c-0.1,0.3-0.2,0.7-0.2,1.2c0,0.5,0.1,0.9,0.2,1.2c0.1,0.3,0.3,0.6,0.5,0.7c0.2,0.2,0.5,0.2,0.8,0.2c0.3,0,0.6-0.1,0.8-0.2
				c0.2-0.2,0.4-0.4,0.5-0.7c0.1-0.3,0.2-0.7,0.2-1.2C257.3,91.2,257.2,90.8,257.1,90.5z M270,90.5c-0.1-0.3-0.3-0.5-0.5-0.7
				c-0.2-0.2-0.5-0.2-0.8-0.2c-0.3,0-0.5,0.1-0.8,0.2c-0.2,0.2-0.4,0.4-0.5,0.7c-0.1,0.3-0.2,0.7-0.2,1.2c0,0.5,0.1,0.9,0.2,1.2
				c0.1,0.3,0.3,0.6,0.5,0.7c0.2,0.2,0.5,0.2,0.8,0.2c0.3,0,0.6-0.1,0.8-0.2c0.2-0.2,0.4-0.4,0.5-0.7c0.1-0.3,0.2-0.7,0.2-1.2
				C270.2,91.2,270.2,90.8,270,90.5z M282.5,90c-0.1-0.3-0.3-0.5-0.5-0.7c-0.2-0.2-0.5-0.2-0.8-0.2s-0.6,0.1-0.8,0.2
				c-0.2,0.2-0.4,0.4-0.5,0.7c-0.1,0.2-0.1,0.3-0.1,0.5h3C282.6,90.4,282.6,90.2,282.5,90z M326.7,88c-0.1-0.5-0.3-0.9-0.5-1.1
				c-0.2-0.2-0.4-0.3-0.7-0.3c-0.3,0-0.5,0.1-0.7,0.3c-0.2,0.2-0.4,0.6-0.5,1.1c-0.1,0.5-0.2,1.2-0.2,2.1c0,0.9,0.1,1.6,0.2,2.1
				c0.1,0.5,0.3,0.9,0.5,1.1c0.2,0.2,0.4,0.3,0.7,0.3c0.3,0,0.5-0.1,0.7-0.3c0.2-0.2,0.4-0.6,0.5-1.1c0.1-0.5,0.2-1.2,0.2-2.1
				C326.9,89.2,326.9,88.5,326.7,88z M326.7,88c-0.1-0.5-0.3-0.9-0.5-1.1c-0.2-0.2-0.4-0.3-0.7-0.3c-0.3,0-0.5,0.1-0.7,0.3
				c-0.2,0.2-0.4,0.6-0.5,1.1c-0.1,0.5-0.2,1.2-0.2,2.1c0,0.9,0.1,1.6,0.2,2.1c0.1,0.5,0.3,0.9,0.5,1.1c0.2,0.2,0.4,0.3,0.7,0.3
				c0.3,0,0.5-0.1,0.7-0.3c0.2-0.2,0.4-0.6,0.5-1.1c0.1-0.5,0.2-1.2,0.2-2.1C326.9,89.2,326.9,88.5,326.7,88z M282.5,90
				c-0.1-0.3-0.3-0.5-0.5-0.7c-0.2-0.2-0.5-0.2-0.8-0.2s-0.6,0.1-0.8,0.2c-0.2,0.2-0.4,0.4-0.5,0.7c-0.1,0.2-0.1,0.3-0.1,0.5h3
				C282.6,90.4,282.6,90.2,282.5,90z M270,90.5c-0.1-0.3-0.3-0.5-0.5-0.7c-0.2-0.2-0.5-0.2-0.8-0.2c-0.3,0-0.5,0.1-0.8,0.2
				c-0.2,0.2-0.4,0.4-0.5,0.7c-0.1,0.3-0.2,0.7-0.2,1.2c0,0.5,0.1,0.9,0.2,1.2c0.1,0.3,0.3,0.6,0.5,0.7c0.2,0.2,0.5,0.2,0.8,0.2
				c0.3,0,0.6-0.1,0.8-0.2c0.2-0.2,0.4-0.4,0.5-0.7c0.1-0.3,0.2-0.7,0.2-1.2C270.2,91.2,270.2,90.8,270,90.5z M257.1,90.5
				c-0.1-0.3-0.3-0.5-0.5-0.7c-0.2-0.2-0.5-0.2-0.8-0.2c-0.3,0-0.5,0.1-0.8,0.2c-0.2,0.2-0.4,0.4-0.5,0.7c-0.1,0.3-0.2,0.7-0.2,1.2
				c0,0.5,0.1,0.9,0.2,1.2c0.1,0.3,0.3,0.6,0.5,0.7c0.2,0.2,0.5,0.2,0.8,0.2c0.3,0,0.6-0.1,0.8-0.2c0.2-0.2,0.4-0.4,0.5-0.7
				c0.1-0.3,0.2-0.7,0.2-1.2C257.3,91.2,257.2,90.8,257.1,90.5z M224.1,88.7c-0.1-0.4-0.3-0.8-0.6-1.1c-0.2-0.3-0.5-0.5-0.9-0.7
				c-0.3-0.2-0.7-0.2-1.1-0.2s-0.7,0.1-1.1,0.2c-0.3,0.2-0.6,0.4-0.9,0.7c-0.2,0.3-0.4,0.7-0.6,1.1c-0.1,0.4-0.2,0.9-0.2,1.5
				c0,0.5,0.1,1,0.2,1.5c0.1,0.4,0.3,0.8,0.6,1.1c0.2,0.3,0.5,0.5,0.9,0.7c0.3,0.1,0.7,0.2,1.1,0.2s0.7-0.1,1.1-0.2
				c0.3-0.2,0.6-0.4,0.9-0.7c0.2-0.3,0.4-0.7,0.6-1.1c0.1-0.4,0.2-0.9,0.2-1.5C224.3,89.6,224.2,89.1,224.1,88.7z M224.1,88.7
				c-0.1-0.4-0.3-0.8-0.6-1.1c-0.2-0.3-0.5-0.5-0.9-0.7c-0.3-0.2-0.7-0.2-1.1-0.2s-0.7,0.1-1.1,0.2c-0.3,0.2-0.6,0.4-0.9,0.7
				c-0.2,0.3-0.4,0.7-0.6,1.1c-0.1,0.4-0.2,0.9-0.2,1.5c0,0.5,0.1,1,0.2,1.5c0.1,0.4,0.3,0.8,0.6,1.1c0.2,0.3,0.5,0.5,0.9,0.7
				c0.3,0.1,0.7,0.2,1.1,0.2s0.7-0.1,1.1-0.2c0.3-0.2,0.6-0.4,0.9-0.7c0.2-0.3,0.4-0.7,0.6-1.1c0.1-0.4,0.2-0.9,0.2-1.5
				C224.3,89.6,224.2,89.1,224.1,88.7z M257.1,90.5c-0.1-0.3-0.3-0.5-0.5-0.7c-0.2-0.2-0.5-0.2-0.8-0.2c-0.3,0-0.5,0.1-0.8,0.2
				c-0.2,0.2-0.4,0.4-0.5,0.7c-0.1,0.3-0.2,0.7-0.2,1.2c0,0.5,0.1,0.9,0.2,1.2c0.1,0.3,0.3,0.6,0.5,0.7c0.2,0.2,0.5,0.2,0.8,0.2
				c0.3,0,0.6-0.1,0.8-0.2c0.2-0.2,0.4-0.4,0.5-0.7c0.1-0.3,0.2-0.7,0.2-1.2C257.3,91.2,257.2,90.8,257.1,90.5z M270,90.5
				c-0.1-0.3-0.3-0.5-0.5-0.7c-0.2-0.2-0.5-0.2-0.8-0.2c-0.3,0-0.5,0.1-0.8,0.2c-0.2,0.2-0.4,0.4-0.5,0.7c-0.1,0.3-0.2,0.7-0.2,1.2
				c0,0.5,0.1,0.9,0.2,1.2c0.1,0.3,0.3,0.6,0.5,0.7c0.2,0.2,0.5,0.2,0.8,0.2c0.3,0,0.6-0.1,0.8-0.2c0.2-0.2,0.4-0.4,0.5-0.7
				c0.1-0.3,0.2-0.7,0.2-1.2C270.2,91.2,270.2,90.8,270,90.5z M282.5,90c-0.1-0.3-0.3-0.5-0.5-0.7c-0.2-0.2-0.5-0.2-0.8-0.2
				s-0.6,0.1-0.8,0.2c-0.2,0.2-0.4,0.4-0.5,0.7c-0.1,0.2-0.1,0.3-0.1,0.5h3C282.6,90.4,282.6,90.2,282.5,90z M282.5,90
				c-0.1-0.3-0.3-0.5-0.5-0.7c-0.2-0.2-0.5-0.2-0.8-0.2s-0.6,0.1-0.8,0.2c-0.2,0.2-0.4,0.4-0.5,0.7c-0.1,0.2-0.1,0.3-0.1,0.5h3
				C282.6,90.4,282.6,90.2,282.5,90z M270,90.5c-0.1-0.3-0.3-0.5-0.5-0.7c-0.2-0.2-0.5-0.2-0.8-0.2c-0.3,0-0.5,0.1-0.8,0.2
				c-0.2,0.2-0.4,0.4-0.5,0.7c-0.1,0.3-0.2,0.7-0.2,1.2c0,0.5,0.1,0.9,0.2,1.2c0.1,0.3,0.3,0.6,0.5,0.7c0.2,0.2,0.5,0.2,0.8,0.2
				c0.3,0,0.6-0.1,0.8-0.2c0.2-0.2,0.4-0.4,0.5-0.7c0.1-0.3,0.2-0.7,0.2-1.2C270.2,91.2,270.2,90.8,270,90.5z M257.1,90.5
				c-0.1-0.3-0.3-0.5-0.5-0.7c-0.2-0.2-0.5-0.2-0.8-0.2c-0.3,0-0.5,0.1-0.8,0.2c-0.2,0.2-0.4,0.4-0.5,0.7c-0.1,0.3-0.2,0.7-0.2,1.2
				c0,0.5,0.1,0.9,0.2,1.2c0.1,0.3,0.3,0.6,0.5,0.7c0.2,0.2,0.5,0.2,0.8,0.2c0.3,0,0.6-0.1,0.8-0.2c0.2-0.2,0.4-0.4,0.5-0.7
				c0.1-0.3,0.2-0.7,0.2-1.2C257.3,91.2,257.2,90.8,257.1,90.5z M224.1,88.7c-0.1-0.4-0.3-0.8-0.6-1.1c-0.2-0.3-0.5-0.5-0.9-0.7
				c-0.3-0.2-0.7-0.2-1.1-0.2s-0.7,0.1-1.1,0.2c-0.3,0.2-0.6,0.4-0.9,0.7c-0.2,0.3-0.4,0.7-0.6,1.1c-0.1,0.4-0.2,0.9-0.2,1.5
				c0,0.5,0.1,1,0.2,1.5c0.1,0.4,0.3,0.8,0.6,1.1c0.2,0.3,0.5,0.5,0.9,0.7c0.3,0.1,0.7,0.2,1.1,0.2s0.7-0.1,1.1-0.2
				c0.3-0.2,0.6-0.4,0.9-0.7c0.2-0.3,0.4-0.7,0.6-1.1c0.1-0.4,0.2-0.9,0.2-1.5C224.3,89.6,224.2,89.1,224.1,88.7z M224.1,88.7
				c-0.1-0.4-0.3-0.8-0.6-1.1c-0.2-0.3-0.5-0.5-0.9-0.7c-0.3-0.2-0.7-0.2-1.1-0.2s-0.7,0.1-1.1,0.2c-0.3,0.2-0.6,0.4-0.9,0.7
				c-0.2,0.3-0.4,0.7-0.6,1.1c-0.1,0.4-0.2,0.9-0.2,1.5c0,0.5,0.1,1,0.2,1.5c0.1,0.4,0.3,0.8,0.6,1.1c0.2,0.3,0.5,0.5,0.9,0.7
				c0.3,0.1,0.7,0.2,1.1,0.2s0.7-0.1,1.1-0.2c0.3-0.2,0.6-0.4,0.9-0.7c0.2-0.3,0.4-0.7,0.6-1.1c0.1-0.4,0.2-0.9,0.2-1.5
				C224.3,89.6,224.2,89.1,224.1,88.7z M257.1,90.5c-0.1-0.3-0.3-0.5-0.5-0.7c-0.2-0.2-0.5-0.2-0.8-0.2c-0.3,0-0.5,0.1-0.8,0.2
				c-0.2,0.2-0.4,0.4-0.5,0.7c-0.1,0.3-0.2,0.7-0.2,1.2c0,0.5,0.1,0.9,0.2,1.2c0.1,0.3,0.3,0.6,0.5,0.7c0.2,0.2,0.5,0.2,0.8,0.2
				c0.3,0,0.6-0.1,0.8-0.2c0.2-0.2,0.4-0.4,0.5-0.7c0.1-0.3,0.2-0.7,0.2-1.2C257.3,91.2,257.2,90.8,257.1,90.5z M270,90.5
				c-0.1-0.3-0.3-0.5-0.5-0.7c-0.2-0.2-0.5-0.2-0.8-0.2c-0.3,0-0.5,0.1-0.8,0.2c-0.2,0.2-0.4,0.4-0.5,0.7c-0.1,0.3-0.2,0.7-0.2,1.2
				c0,0.5,0.1,0.9,0.2,1.2c0.1,0.3,0.3,0.6,0.5,0.7c0.2,0.2,0.5,0.2,0.8,0.2c0.3,0,0.6-0.1,0.8-0.2c0.2-0.2,0.4-0.4,0.5-0.7
				c0.1-0.3,0.2-0.7,0.2-1.2C270.2,91.2,270.2,90.8,270,90.5z M282.5,90c-0.1-0.3-0.3-0.5-0.5-0.7c-0.2-0.2-0.5-0.2-0.8-0.2
				s-0.6,0.1-0.8,0.2c-0.2,0.2-0.4,0.4-0.5,0.7c-0.1,0.2-0.1,0.3-0.1,0.5h3C282.6,90.4,282.6,90.2,282.5,90z M282.5,90
				c-0.1-0.3-0.3-0.5-0.5-0.7c-0.2-0.2-0.5-0.2-0.8-0.2s-0.6,0.1-0.8,0.2c-0.2,0.2-0.4,0.4-0.5,0.7c-0.1,0.2-0.1,0.3-0.1,0.5h3
				C282.6,90.4,282.6,90.2,282.5,90z M270,90.5c-0.1-0.3-0.3-0.5-0.5-0.7c-0.2-0.2-0.5-0.2-0.8-0.2c-0.3,0-0.5,0.1-0.8,0.2
				c-0.2,0.2-0.4,0.4-0.5,0.7c-0.1,0.3-0.2,0.7-0.2,1.2c0,0.5,0.1,0.9,0.2,1.2c0.1,0.3,0.3,0.6,0.5,0.7c0.2,0.2,0.5,0.2,0.8,0.2
				c0.3,0,0.6-0.1,0.8-0.2c0.2-0.2,0.4-0.4,0.5-0.7c0.1-0.3,0.2-0.7,0.2-1.2C270.2,91.2,270.2,90.8,270,90.5z M257.1,90.5
				c-0.1-0.3-0.3-0.5-0.5-0.7c-0.2-0.2-0.5-0.2-0.8-0.2c-0.3,0-0.5,0.1-0.8,0.2c-0.2,0.2-0.4,0.4-0.5,0.7c-0.1,0.3-0.2,0.7-0.2,1.2
				c0,0.5,0.1,0.9,0.2,1.2c0.1,0.3,0.3,0.6,0.5,0.7c0.2,0.2,0.5,0.2,0.8,0.2c0.3,0,0.6-0.1,0.8-0.2c0.2-0.2,0.4-0.4,0.5-0.7
				c0.1-0.3,0.2-0.7,0.2-1.2C257.3,91.2,257.2,90.8,257.1,90.5z M224.1,88.7c-0.1-0.4-0.3-0.8-0.6-1.1c-0.2-0.3-0.5-0.5-0.9-0.7
				c-0.3-0.2-0.7-0.2-1.1-0.2s-0.7,0.1-1.1,0.2c-0.3,0.2-0.6,0.4-0.9,0.7c-0.2,0.3-0.4,0.7-0.6,1.1c-0.1,0.4-0.2,0.9-0.2,1.5
				c0,0.5,0.1,1,0.2,1.5c0.1,0.4,0.3,0.8,0.6,1.1c0.2,0.3,0.5,0.5,0.9,0.7c0.3,0.1,0.7,0.2,1.1,0.2s0.7-0.1,1.1-0.2
				c0.3-0.2,0.6-0.4,0.9-0.7c0.2-0.3,0.4-0.7,0.6-1.1c0.1-0.4,0.2-0.9,0.2-1.5C224.3,89.6,224.2,89.1,224.1,88.7z M224.1,88.7
				c-0.1-0.4-0.3-0.8-0.6-1.1c-0.2-0.3-0.5-0.5-0.9-0.7c-0.3-0.2-0.7-0.2-1.1-0.2s-0.7,0.1-1.1,0.2c-0.3,0.2-0.6,0.4-0.9,0.7
				c-0.2,0.3-0.4,0.7-0.6,1.1c-0.1,0.4-0.2,0.9-0.2,1.5c0,0.5,0.1,1,0.2,1.5c0.1,0.4,0.3,0.8,0.6,1.1c0.2,0.3,0.5,0.5,0.9,0.7
				c0.3,0.1,0.7,0.2,1.1,0.2s0.7-0.1,1.1-0.2c0.3-0.2,0.6-0.4,0.9-0.7c0.2-0.3,0.4-0.7,0.6-1.1c0.1-0.4,0.2-0.9,0.2-1.5
				C224.3,89.6,224.2,89.1,224.1,88.7z M257.1,90.5c-0.1-0.3-0.3-0.5-0.5-0.7c-0.2-0.2-0.5-0.2-0.8-0.2c-0.3,0-0.5,0.1-0.8,0.2
				c-0.2,0.2-0.4,0.4-0.5,0.7c-0.1,0.3-0.2,0.7-0.2,1.2c0,0.5,0.1,0.9,0.2,1.2c0.1,0.3,0.3,0.6,0.5,0.7c0.2,0.2,0.5,0.2,0.8,0.2
				c0.3,0,0.6-0.1,0.8-0.2c0.2-0.2,0.4-0.4,0.5-0.7c0.1-0.3,0.2-0.7,0.2-1.2C257.3,91.2,257.2,90.8,257.1,90.5z M257.1,90.5
				c-0.1-0.3-0.3-0.5-0.5-0.7c-0.2-0.2-0.5-0.2-0.8-0.2c-0.3,0-0.5,0.1-0.8,0.2c-0.2,0.2-0.4,0.4-0.5,0.7c-0.1,0.3-0.2,0.7-0.2,1.2
				c0,0.5,0.1,0.9,0.2,1.2c0.1,0.3,0.3,0.6,0.5,0.7c0.2,0.2,0.5,0.2,0.8,0.2c0.3,0,0.6-0.1,0.8-0.2c0.2-0.2,0.4-0.4,0.5-0.7
				c0.1-0.3,0.2-0.7,0.2-1.2C257.3,91.2,257.2,90.8,257.1,90.5z M224.1,88.7c-0.1-0.4-0.3-0.8-0.6-1.1c-0.2-0.3-0.5-0.5-0.9-0.7
				c-0.3-0.2-0.7-0.2-1.1-0.2s-0.7,0.1-1.1,0.2c-0.3,0.2-0.6,0.4-0.9,0.7c-0.2,0.3-0.4,0.7-0.6,1.1c-0.1,0.4-0.2,0.9-0.2,1.5
				c0,0.5,0.1,1,0.2,1.5c0.1,0.4,0.3,0.8,0.6,1.1c0.2,0.3,0.5,0.5,0.9,0.7c0.3,0.1,0.7,0.2,1.1,0.2s0.7-0.1,1.1-0.2
				c0.3-0.2,0.6-0.4,0.9-0.7c0.2-0.3,0.4-0.7,0.6-1.1c0.1-0.4,0.2-0.9,0.2-1.5C224.3,89.6,224.2,89.1,224.1,88.7z M224.1,88.7
				c-0.1-0.4-0.3-0.8-0.6-1.1c-0.2-0.3-0.5-0.5-0.9-0.7c-0.3-0.2-0.7-0.2-1.1-0.2s-0.7,0.1-1.1,0.2c-0.3,0.2-0.6,0.4-0.9,0.7
				c-0.2,0.3-0.4,0.7-0.6,1.1c-0.1,0.4-0.2,0.9-0.2,1.5c0,0.5,0.1,1,0.2,1.5c0.1,0.4,0.3,0.8,0.6,1.1c0.2,0.3,0.5,0.5,0.9,0.7
				c0.3,0.1,0.7,0.2,1.1,0.2s0.7-0.1,1.1-0.2c0.3-0.2,0.6-0.4,0.9-0.7c0.2-0.3,0.4-0.7,0.6-1.1c0.1-0.4,0.2-0.9,0.2-1.5
				C224.3,89.6,224.2,89.1,224.1,88.7z M224.1,88.7c-0.1-0.4-0.3-0.8-0.6-1.1c-0.2-0.3-0.5-0.5-0.9-0.7c-0.3-0.2-0.7-0.2-1.1-0.2
				s-0.7,0.1-1.1,0.2c-0.3,0.2-0.6,0.4-0.9,0.7c-0.2,0.3-0.4,0.7-0.6,1.1c-0.1,0.4-0.2,0.9-0.2,1.5c0,0.5,0.1,1,0.2,1.5
				c0.1,0.4,0.3,0.8,0.6,1.1c0.2,0.3,0.5,0.5,0.9,0.7c0.3,0.1,0.7,0.2,1.1,0.2s0.7-0.1,1.1-0.2c0.3-0.2,0.6-0.4,0.9-0.7
				c0.2-0.3,0.4-0.7,0.6-1.1c0.1-0.4,0.2-0.9,0.2-1.5C224.3,89.6,224.2,89.1,224.1,88.7z M224.1,88.7c-0.1-0.4-0.3-0.8-0.6-1.1
				c-0.2-0.3-0.5-0.5-0.9-0.7c-0.3-0.2-0.7-0.2-1.1-0.2s-0.7,0.1-1.1,0.2c-0.3,0.2-0.6,0.4-0.9,0.7c-0.2,0.3-0.4,0.7-0.6,1.1
				c-0.1,0.4-0.2,0.9-0.2,1.5c0,0.5,0.1,1,0.2,1.5c0.1,0.4,0.3,0.8,0.6,1.1c0.2,0.3,0.5,0.5,0.9,0.7c0.3,0.1,0.7,0.2,1.1,0.2
				s0.7-0.1,1.1-0.2c0.3-0.2,0.6-0.4,0.9-0.7c0.2-0.3,0.4-0.7,0.6-1.1c0.1-0.4,0.2-0.9,0.2-1.5C224.3,89.6,224.2,89.1,224.1,88.7z
				 M224.1,88.7c-0.1-0.4-0.3-0.8-0.6-1.1c-0.2-0.3-0.5-0.5-0.9-0.7c-0.3-0.2-0.7-0.2-1.1-0.2s-0.7,0.1-1.1,0.2
				c-0.3,0.2-0.6,0.4-0.9,0.7c-0.2,0.3-0.4,0.7-0.6,1.1c-0.1,0.4-0.2,0.9-0.2,1.5c0,0.5,0.1,1,0.2,1.5c0.1,0.4,0.3,0.8,0.6,1.1
				c0.2,0.3,0.5,0.5,0.9,0.7c0.3,0.1,0.7,0.2,1.1,0.2s0.7-0.1,1.1-0.2c0.3-0.2,0.6-0.4,0.9-0.7c0.2-0.3,0.4-0.7,0.6-1.1
				c0.1-0.4,0.2-0.9,0.2-1.5C224.3,89.6,224.2,89.1,224.1,88.7z"/>
		</g>
	</g>
</g>
</svg>
