<?xml version="1.0" encoding="UTF-8"?><svg id="a" xmlns="http://www.w3.org/2000/svg" viewBox="0 0 1152 504"><polygon points="425.75 258.89 425.75 164.99 493.82 164.99 493.82 372 435.98 372 357.27 278.09 357.27 372 289.21 372 289.21 164.99 346.62 164.99 425.75 258.89" fill="#fff"/><polygon points="695.92 164.99 695.92 217.57 597.37 217.57 597.37 253.05 683.81 253.05 683.81 305.64 597.37 305.64 597.37 372 527.64 372 527.64 164.99 695.92 164.99" fill="#fff"/><path d="M344.74,144.53l-32.98-18.16c-53.55-28.26-137.28-63.21-198.44-53.5-84.69,13.44-35.23,108.01-5.26,149.85,57.86,80.78,152.64,154.1,244.22,192.47,48.47,20.31,142.59,48.17,164.39-20.97l2.2-9.69c1.04,11.86-1.97,24.42-8.17,34.61-24.96,41.03-87.56,37.75-128.38,29.05-110.61-23.6-227.05-106.05-294.55-195.59C55.2,209.38,11.48,130.08,48.35,78.46c34.62-48.48,111.96-33.65,159.65-16.15,49.88,18.3,96.25,48.29,136.75,82.23Z" fill="#fff"/><path d="M106.31,299.59c-29.21-33.25-55.09-70.97-72.02-112.08-16.51-40.09-27.45-100.28,11.93-130.79,20.58-15.94,48.38-23.5,74.28-22.79.1.73-.95.39-1.46.41-3.49.14-6.96.08-10.44.42-27.33,2.65-61.41,16.68-75.45,41.45-19.72,34.79-6.44,82.57,9.32,116.46,54.34,116.85,186.66,223.43,309.36,260.5,54.51,16.46,141.81,27.15,173.36-32.9l4.1-11.13c-2.97,16.35-12.45,29.93-25.75,39.57-41.02,29.73-100.87,23.43-147.21,11.23-62.29-16.4-120.27-49.51-171.32-87.95h-78.71v-72.41Z" fill="#fff"/><path d="M176.46,164.99v119.37c-.73.18-.83-.3-1.26-.62-3.45-2.64-8.48-8.35-11.7-11.68-21.05-21.78-40.43-45.29-57.2-70.55v-36.52h70.15Z" fill="#fff"/><rect x="733.5" y="164.57" width="6.68" height="207.43" fill="#fff"/><polygon points="808.25 273.92 808.25 247.21 818.69 247.21 818.69 292.28 810.13 292.28 787.79 265.57 787.79 292.28 777.35 292.28 777.35 247.21 785.91 247.21 808.25 273.92" fill="#fff"/><path d="M893.43,211.52c-1.19,14.1-12.09,18.14-24.8,16.44-3.96-.53-9.07-1.78-11.83-4.75l3.89-6.87c7.65,4.98,23.87,6.75,22.09-6.7-9.29,8.18-25.38,3-27.73-9.43-3.14-16.64,16.04-26.54,28.35-16.03.13-1.26-.46-2.86.63-3.76h8.77l.63.63c-.62,9.87.83,20.71,0,30.47ZM872.45,188.47c-9.72,1.38-9.73,15.28-.07,16.55,13.26,1.75,14.23-15.41,3.26-16.61-1.09-.12-2.1-.09-3.19.06Z" fill="#fff"/><path d="M270,318.16v40.9c-19.56-12.3-38.17-26.17-55.95-40.9h55.95Z" fill="#fff"/><polygon points="901.78 257.64 909.3 280.18 910.23 279.65 918.13 257.7 926.23 257.61 934.98 280.6 943.12 257.64 952.31 257.64 939.99 291.87 930.37 292.31 922.45 271.83 914.33 292.09 904.34 292.23 892.18 257.64 901.78 257.64" fill="#fff"/><path d="M893.02,369.5h-10.02v-3.34c-15.1,11.68-33.5-3.83-26.67-21.44,3.95-10.18,18.09-14.03,26.25-6.52v-16.07l.63-.63h9.19l.63.63v47.37ZM872.45,342.9c-9.45,1.36-9.41,17.34-.07,18.63,14.1,1.95,13.96-20.64.07-18.63Z" fill="#fff"/><path d="M1035.82,244.7v26.29c.73.18.83-.3,1.26-.62,4.35-3.33,8.79-9.14,13.15-12.73h11.9l-13.8,14.82,15.05,19.82h-11.9l-10.66-13.36-5,4.8v8.56h-10.44v-47.58h10.44Z" fill="#fff"/><polygon points="811.59 324.42 811.59 332.77 788.41 332.77 787.79 333.39 787.79 344.25 788.41 344.87 808.67 344.87 808.67 353.22 787.79 353.22 787.79 369.5 777.35 369.5 777.35 324.42 811.59 324.42" fill="#fff"/><path d="M909.72,355.31c2.39,8.04,12.88,8.33,18.52,3.37l5.25,5.96c-1.75,2.13-4.85,3.91-7.48,4.65-15.07,4.25-30.72-6.29-25.77-22.84,4.62-15.44,28.95-16.41,34.62-1.45,1.1,2.91,1.93,7.56.55,10.31h-25.68ZM926.42,349.04c-1.53-9.3-15.28-9.35-16.7,0h16.7Z" fill="#fff"/><path d="M824.53,355.31c2.72,8,12.74,8.32,18.59,3.44l5.18,5.89c-.21,1.22-5.25,3.9-6.53,4.35-15.83,5.54-33.23-7.31-25.94-24.26,6.33-14.72,30.47-13.72,34.48,2.15.6,2.39,1.13,6.28-.09,8.43h-25.68ZM841.24,349.04c-1.59-9.32-15.13-9.32-16.7,0h16.7Z" fill="#fff"/><path d="M862.53,278.09h-25.89c1.64,8.06,12.99,8.32,18.17,3.41l5.19,5.92c-8.55,9.44-28.03,6.65-32.74-5.58-6.58-17.06,12.17-30.91,27.21-22.19,3.38,1.96,8.07,7.53,8.07,11.55v6.89ZM852.93,271.83c-1.4-9.35-15.11-9.18-16.7,0h16.7Z" fill="#fff"/><path d="M968.92,257.34c31.69-3.79,28.61,41.11-.84,35.25-20.36-4.06-19.1-32.86.84-35.25ZM966.23,282.12c.73.76,2.54,1.82,3.59,2.04,14.8,3.15,15.15-19.89,1.48-18.6-7.73.73-9.97,11.45-5.07,16.55Z" fill="#fff"/><path d="M1067.89,334.55c13.01-1.56,24.03,6.2,22.59,20.07-1.44,13.88-18.69,19.47-29.72,12.7-14.26-8.75-9.54-30.78,7.13-32.77ZM1069.54,342.88c-9.37,1.59-9.02,17.59.32,18.68,14.28,1.66,13.52-21.03-.32-18.68Z" fill="#fff"/><path d="M828.2,180.13c31.68-3.8,28.69,41.12-.84,35.25-20.28-4.03-19.03-32.86.84-35.25ZM830.28,188.47c-10.82,1.48-9.79,21.09,3.97,18.57,8.96-1.64,8.85-20.33-3.97-18.57Z" fill="#fff"/><path d="M998.66,369.5h-9.6v-3.75c-.66.07-.64.96-1.23,1.48-5.82,5.2-19.81,3.64-21.87-4.9-1.45-6.02,1.64-10.77,7.47-12.42.76-.21,3.59-.86,4.15-.86h10.65c.09-9.33-12.75-7.19-17.95-3.34l-3.32-7.48c7.75-4.74,24.01-6.38,29.56,2.33.61.95,2.16,5.24,2.16,6.19v22.75ZM988.22,355.31h-9.81c-.32,0-2.32,1.68-2.49,2.09-2.56,6.06,7.26,7.58,11.05,3.53,1.65-1.77,1.29-3.37,1.26-5.63Z" fill="#fff"/><path d="M1132.7,369.5h-10.44v-21.08c0-.22-1.21-2.77-1.48-3.11-2.42-3.08-8.64-2.64-11.22.02-.87.9-2.34,4.01-2.34,5.18v18.99h-10.02v-34.64h9.6v3.76c6.25-5.92,19.15-6.13,23.72,1.96.77,1.36,2.17,5.17,2.17,6.6v22.33Z" fill="#fff"/><path d="M1068.39,190.03c-3.91-1.8-11.25-4-15.17-1.6-2.16,1.32-2.2,3.2.14,4.32,5.31,2.54,17.3.8,19.03,8.95,2.69,12.67-12.01,14.72-21.2,13.68-1.55-.18-9.06-2.15-9.74-3.22-.75-1.18,2.55-5.95,2.74-7.52,4.49,1.97,12.59,4.79,17.24,2.42,1.89-.96,2-3.12.18-4.18-2.55-1.49-9.47-1.51-13.05-2.81-9.78-3.55-8.43-15.18.42-18.81,6.6-2.71,16.26-2.05,22.32,1.54l-2.89,7.24Z" fill="#fff"/><path d="M939.66,206.6c3.76-4.5-8.57-4.99-10.74-5.5-4.31-1.01-8.87-3.03-9.55-7.98-2.04-14.76,20.43-15.49,29.43-10.2l-3.42,7.08c-4.44-1.74-14.08-4.8-16.36,1,.13.49.39.96.74,1.33,2.01,2.14,12.23,1.95,16.28,4.6,4.26,2.79,5.14,9.02,2.29,13.1-5.56,7.95-22.13,6.72-29.65,2.12l3.37-7.47c3.17,2.43,14.99,5.07,17.63,1.92Z" fill="#fff"/><path d="M1027.54,192.89c-.13-.07-1.05-1.93-1.64-2.45-5.11-4.45-13.75-1.44-14.68,5.26-1.57,11.31,10.53,15.83,16.87,6.95l7.73,4.08c-6.31,13.79-29.12,11.16-34.02-2.52-7.67-21.43,23.01-33.87,33.94-15.64-.04.59-7.62,4.65-8.2,4.31Z" fill="#fff"/><polygon points="787.79 169.99 787.79 206.1 788.41 206.72 810.34 206.72 810.34 215.07 777.35 215.07 777.35 169.99 787.79 169.99" fill="#fff"/><path d="M1019.12,327.34v8.35h8.35v7.93h-8.35v15.65c0,.27,1.11,1.62,1.45,1.89,2.95,2.31,6.59-.65,6.89-.42l2.48,7.48c-5.46,2.75-13.99,3-18.36-1.84-4.84-5.36-2.25-16.05-2.91-22.76-.37-.37-4.74.68-5.43-.62v-7.3h5.43v-8.35h10.44Z" fill="#fff"/><path d="M880.49,250.13v8.35h8.77v7.93h-8.77v14.4c0,.32.94,2.48,1.23,2.83,1.77,2.05,5.49,1.02,7.53-.11l2.5,7.49c-5.9,2.99-15.65,3.01-19.55-3.18-.42-.66-1.74-3.96-1.74-4.52v-16.9h-5.43v-7.93h5.43v-8.35h10.02Z" fill="#fff"/><path d="M967.34,172.92v8.35h8.77v7.93h-8.77v14.82c0,.13.87,2.04,1.05,2.29,1.44,1.93,5.43,1.66,7.09.02.9,1.8,3.94,6.73,1.76,8.02-5.08,3-15.37,1.56-18.44-3.88-.37-.65-1.49-3.42-1.49-3.93v-17.32h-5.43v-7.93h5.43v-8.35h10.02Z" fill="#fff"/><path d="M964.42,334.44v9.18c-4.21-.35-9,.55-10.82,4.84-.19.45-.87,2.61-.87,2.88v18.16h-10.02v-34.64h9.6l.21,4.17c2.89-3.55,7.41-4.92,11.9-4.59Z" fill="#fff"/><path d="M1019.96,257.22v9.18c-3.17-.28-7.65.3-9.8,2.94-.45.55-1.9,3.82-1.9,4.37v18.57h-10.02v-34.64h9.6l.21,4.17c2.89-3.55,7.41-4.92,11.9-4.59Z" fill="#fff"/><rect x="1035.41" y="334.85" width="10.44" height="34.64" fill="#fff"/><rect x="984.05" y="180.43" width="10.02" height="34.64" fill="#fff"/><rect x="902.62" y="180.43" width="10.02" height="34.64" fill="#fff"/><path d="M1038.64,319.09c4.28-.78,8.86.82,8.37,5.83-.74,7.56-12.66,6.68-12.82-.34-.05-2.31,2.19-5.08,4.45-5.49Z" fill="#fff"/><path d="M905.43,164.66c2.98-.61,6.76-.03,8.01,3.08,2.01,5.02-2.53,8.94-7.5,7.91-6.31-1.3-6.02-9.86-.5-10.99Z" fill="#fff"/><path d="M986.86,164.66c11.8-2.41,10.74,13.14.51,10.99-6-1.27-6.01-9.86-.51-10.99Z" fill="#fff"/></svg>